<?xml version="1.0" encoding="utf-8"?>
<!-- Generator: Adobe Illustrator 16.0.0, SVG Export Plug-In . SVG Version: 6.00 Build 0)  -->
<!DOCTYPE svg PUBLIC "-//W3C//DTD SVG 1.1//EN" "http://www.w3.org/Graphics/SVG/1.1/DTD/svg11.dtd">
<svg version="1.1" id="Capa_1" xmlns="http://www.w3.org/2000/svg" xmlns:xlink="http://www.w3.org/1999/xlink" x="0px" y="0px"
	 width="125.994px" height="56.252px" viewBox="0 0 125.994 56.252" enable-background="new 0 0 125.994 56.252"
	 xml:space="preserve">
<g>
	<path fill-rule="evenodd" clip-rule="evenodd" fill="#0093B5" d="M96.148,9.284c-0.417,0.471-1.185,0.833-1.856,1.079
		c-0.068,0.024-0.176-0.032-0.24,0c-0.173,0.086-0.68,0.292-1.078,0.299c0.04-0.385,0.58-0.543,0.958-0.719
		C94.564,9.648,95.205,9.345,96.148,9.284z"/>
	<path fill-rule="evenodd" clip-rule="evenodd" fill="#0093B5" d="M97.826,10.602c-0.329,0.614-1.413,0.994-2.276,1.198
		c-0.512,0.121-1.146,0.29-1.558,0c0.319-0.649,1.442-1.118,2.336-1.318C96.804,10.375,97.457,10.237,97.826,10.602z"/>
	<path fill-rule="evenodd" clip-rule="evenodd" fill="#0093B5" d="M90.636,11.321c-0.458,0.46-1.118,0.719-1.797,0.958l-0.078-0.078
		L88.66,12.16c0.515-0.463,1.191-0.766,1.917-1.019l-0.021,0.107L90.636,11.321z"/>
	<path fill-rule="evenodd" clip-rule="evenodd" fill="#0093B5" d="M91.775,11.98c-0.7,0.778-1.634,1.322-2.936,1.498
		c-0.05-0.335,0.316-0.445,0.539-0.599C89.952,12.481,90.821,11.883,91.775,11.98z"/>
	<path fill-rule="evenodd" clip-rule="evenodd" fill="#0093B5" d="M100.042,12.998c0.05,0.172-0.084,0.342-0.18,0.479
		c-0.376,0.54-1.556,0.943-2.517,1.019c-0.766,0.061-1.786,0.026-1.977-0.659C95.98,12.786,98.879,11.897,100.042,12.998z"/>
	<path fill-rule="evenodd" clip-rule="evenodd" fill="#0093B5" d="M92.733,13.657c0.084,0.396-0.326,0.67-0.658,0.899
		c-0.629,0.431-1.748,1.085-2.816,0.599c0.098-0.491,0.682-0.843,1.258-1.138C91.183,13.675,92.149,13.298,92.733,13.657z"/>
	<path fill-rule="evenodd" clip-rule="evenodd" fill="#0093B5" d="M87.162,13.657c-0.194,0.481-0.864,0.795-1.378,1.138
		c-0.176,0.117-0.616,0.331-0.959,0.359C85.336,14.388,86.158,13.932,87.162,13.657z"/>
	<path fill-rule="evenodd" clip-rule="evenodd" fill="#0093B5" d="M87.401,15.035c-0.009,0.438-0.464,0.764-0.839,1.019
		c-0.516,0.351-1.103,0.743-1.856,0.659C85.262,15.812,86.099,15.191,87.401,15.035z"/>
	<path fill-rule="evenodd" clip-rule="evenodd" fill="#0093B5" d="M90.577,18.75c-1.733-0.728,0.61-2.334,1.917-2.456
		c0.653-0.061,1.443,0.125,1.558,0.539c0.266,0.963-1.498,1.815-2.336,1.917C91.349,18.794,91.038,18.718,90.577,18.75z"/>
	<path fill-rule="evenodd" clip-rule="evenodd" fill="#0093B5" d="M99.204,16.413c1.531-0.247,4.019,0.197,3.834,1.797
		c-0.115,1.004-1.438,1.378-2.636,1.378c-1.615,0-4.089-1.124-2.636-2.516C98.106,16.746,98.504,16.526,99.204,16.413z"/>
	<path fill-rule="evenodd" clip-rule="evenodd" fill="#0093B5" d="M83.447,16.653c-0.477,0.761-1.176,1.3-2.097,1.618
		c0.056-0.537,0.618-0.795,1.019-1.079C82.611,17.021,82.937,16.618,83.447,16.653z"/>
	<path fill-rule="evenodd" clip-rule="evenodd" fill="#0093B5" d="M87.701,17.312c0.133,0.488-0.229,0.788-0.539,1.078
		c-0.267,0.25-0.601,0.576-0.898,0.719c-0.449,0.215-1.208,0.423-1.618,0c0.102-0.5,0.47-0.945,0.898-1.258
		C86.042,17.487,86.9,17.049,87.701,17.312z"/>
	<path fill-rule="evenodd" clip-rule="evenodd" fill="#0093B5" d="M80.152,18.51c-0.274,0.424-0.67,0.728-1.138,0.958l0.021-0.107
		l-0.082-0.073c0.278-0.421,0.693-0.705,1.139-0.958l0.029,0.09L80.152,18.51z"/>
	<path fill-rule="evenodd" clip-rule="evenodd" fill="#0093B5" d="M83.208,18.51c-0.078,0.78-0.795,1.279-1.378,1.617
		c-0.277,0.161-0.596,0.358-0.959,0.3c-0.083-0.418,0.411-0.959,0.779-1.258C81.95,18.925,82.559,18.463,83.208,18.51z"/>
	<path fill-rule="evenodd" clip-rule="evenodd" fill="#0093B5" d="M79.852,19.888c-0.315,0.882-1.033,1.362-1.857,1.737
		C78.12,20.896,78.969,20.117,79.852,19.888z"/>
	<path fill-rule="evenodd" clip-rule="evenodd" fill="#0093B5" d="M87.042,20.787c0.494-0.041,1.172,0.073,1.259,0.659
		c0.09,0.611-0.591,1.375-0.839,1.558c-0.646,0.472-2.37,1.148-2.756,0.18c-0.135-0.336,0.09-1.028,0.299-1.318
		C85.406,21.31,86.249,20.852,87.042,20.787z"/>
	<path fill-rule="evenodd" clip-rule="evenodd" fill="#0093B5" d="M93.153,21.086c0.778-0.114,1.235-0.012,1.797,0.299
		c0.679,0.376,1.337,1.116,0.898,2.157c-0.277,0.661-1.331,1.29-2.276,1.318c-1.1,0.032-1.861-0.401-2.396-1.019
		c-0.69-0.797,0.106-1.943,0.719-2.337C92.267,21.267,92.689,21.154,93.153,21.086z"/>
	<path fill-rule="evenodd" clip-rule="evenodd" fill="#0093B5" d="M77.157,21.446c-0.28,0.479-0.676,0.842-1.139,1.138v-0.12h-0.12
		c0.24-0.479,0.664-0.774,1.079-1.079l0.072,0.082L77.157,21.446z"/>
	<path fill-rule="evenodd" clip-rule="evenodd" fill="#0093B5" d="M82.968,21.565c0.015,0.934-0.658,1.179-1.019,1.738
		c-0.498,0.141-0.732,0.546-1.438,0.479c0.022-0.102-0.047-0.113-0.119-0.12C79.992,22.603,82.007,20.832,82.968,21.565z"/>
	<path fill-rule="evenodd" clip-rule="evenodd" fill="#0093B5" d="M79.253,22.344c-0.264,1.094-0.916,1.8-2.037,2.037
		c-0.167-0.408,0.182-1.022,0.419-1.019c0.23-0.589,0.825-0.812,1.318-1.138C79.093,22.292,79.114,22.211,79.253,22.344z"/>
	<path fill-rule="evenodd" clip-rule="evenodd" fill="#0093B5" d="M76.557,23.303c-0.396,0.82-0.843,1.593-1.797,1.857
		c0.26-0.919,0.887-1.47,1.617-1.917C76.474,23.226,76.481,23.3,76.557,23.303z"/>
	<path fill-rule="evenodd" clip-rule="evenodd" fill="#0093B5" d="M101.839,23.363c2.507-0.388,5.514,1.729,5.452,4.134
		c-0.002,0.079-0.036,0.336-0.06,0.42c-0.148,0.517-0.858,1.041-1.438,1.138c-0.355,0.06-0.784,0.05-1.258,0
		c-1.365-0.145-2.618-1.055-3.355-1.797c-0.581-0.587-1.142-1.395-1.138-2.157C100.047,24.101,100.831,23.519,101.839,23.363z"/>
	<path fill-rule="evenodd" clip-rule="evenodd" fill="#0093B5" d="M59.663,27.856c-0.006,0.323-0.368,0.57-0.6,0.839
		c-0.24,0.279-0.437,0.594-0.659,0.839c-0.997-0.448-2.453-1.079-4.134-0.839c-0.852,0.122-2.015,1.102-1.198,1.978
		c0.503,0.538,2.131,0.707,3.175,0.958c1.127,0.271,2.237,0.675,2.876,1.258c0.23,0.211,0.274,0.474,0.599,0.72
		c0.007-4.243,2.203-6.65,6.471-6.65c3.954,0,6.582,2.398,6.291,6.471c-0.147,2.053-1.273,3.883-2.876,4.732
		c-0.12,0.063-0.322,0.051-0.479,0.12c-0.154,0.067-0.267,0.208-0.359,0.239c-2.146,0.733-5.237,0.293-6.65-0.719
		c-0.259-0.186-0.607-0.42-0.779-0.6c-0.083-0.087-0.264-0.354-0.359-0.479c-0.352-0.461-0.529-0.827-0.838-1.558
		c-0.238,0.443-0.249,0.95-0.479,1.378c-0.087,0.161-0.269,0.362-0.419,0.539c-1.881,2.205-7.347,2.295-10.305,0.778
		c0.318-0.601,0.762-1.074,1.019-1.737c1.074,0.484,3.094,1.072,4.853,0.898c1.112-0.109,2.518-1.032,1.677-2.276
		c-0.039-0.059-0.115-0.179-0.179-0.239c-0.565-0.535-1.951-0.696-2.936-0.898c-1.456-0.3-2.546-0.744-3.354-1.618
		c0.318,3.809-1.729,6.603-5.392,6.83c-1.865,0.116-3.542-0.156-4.673-0.898c-0.583-0.383-0.92-0.626-1.378-1.198
		c-0.827-1.033-1.391-2.639-1.258-4.493c-0.624,0.534-1.401,1.435-2.756,1.438c0.105,0.263,0.353,0.416,0.54,0.599
		c1.257,1.236,2.281,2.92,3.475,4.314c-0.999,0.14-2.256,0.02-3.355,0.06c-0.461-0.461-0.799-0.995-1.198-1.558
		c-0.384-0.542-0.774-1.108-1.198-1.678c-0.491-0.66-0.937-1.466-1.977-1.558c-0.14,1.478-0.02,3.215-0.06,4.793
		c-0.938,0-1.877,0-2.816,0c0-3.834,0-7.669,0-11.503c2.024,0.119,4.248-0.16,6.111,0c2.069,0.178,3.376,1.235,3.714,3.115
		c0.325-0.229,0.327-0.593,0.539-0.898c1.028-1.482,3.016-2.396,5.392-2.396c2.707,0,4.89,1.216,5.751,3.175
		c0.204-0.485,0.271-0.89,0.54-1.317C51.577,26.332,56.834,26.29,59.663,27.856z M41.569,29.354
		c-0.256,0.243-0.694,1.146-0.779,1.438c-0.467,1.603-0.3,4.238,0.419,5.332c0.782,1.189,3.418,1.318,4.433,0.42
		c1.277-1.131,1.367-5.342,0.479-6.71c-0.493-0.761-1.536-1.238-2.875-1.079C42.56,28.836,41.959,28.983,41.569,29.354z
		 M64.036,29.354c-1.092,0.95-1.342,4.313-0.719,6.051c0.128,0.356,0.539,1.007,0.779,1.198c0.59,0.472,1.536,0.548,2.097,0.539
		c1.208-0.019,2.07-0.498,2.516-1.438c0.746-1.571,0.494-5.23-0.359-6.171c-0.544-0.601-1.762-0.901-2.695-0.779
		C64.914,28.851,64.436,29.005,64.036,29.354z M34.081,31.81c0.575-0.385,0.765-1.31,0.539-1.917
		c-0.147-0.396-0.654-0.712-1.138-0.839c-0.669-0.175-2-0.108-2.636-0.12c-0.023,0.086-0.072,0.102,0,0.18
		c0.011,1.03,0.003,2.04-0.06,2.996C31.824,32.045,33.358,32.294,34.081,31.81z"/>
	<path fill-rule="evenodd" clip-rule="evenodd" fill="#0093B5" d="M17.665,27.078c3.249,0.05,7.219-0.354,8.987,1.258
		c0.833,0.759,1.322,2.212,0.779,3.595c-0.183,0.465-0.604,0.955-1.018,1.317c-1.24,1.085-3.284,1.242-5.872,1.139
		c-0.14,1.298-0.02,2.856-0.06,4.254c-0.979,0-1.958,0-2.936,0c0-3.794,0-7.589,0-11.383C17.542,27.155,17.589,27.102,17.665,27.078
		z M20.481,32.589c1.013-0.24,1.81,0.116,2.696-0.061c1.317-0.263,1.721-2.132,0.898-3.056c-0.717-0.805-2.235-0.415-3.594-0.599
		C20.481,30.113,20.481,31.351,20.481,32.589z"/>
	<path fill-rule="evenodd" clip-rule="evenodd" fill="#0093B5" d="M80.511,27.197c-0.037,0.662-0.185,1.214-0.3,1.798
		c-1.557,0-3.115,0-4.673,0c0.005,0.649-0.01,2.037,0,2.695c1.007,0.006,2.511-0.004,3.715,0c0.111,0.5,0.081,1.354,0,1.857
		c-1.238,0-2.477,0-3.715,0c-0.005,1.465,0.004,3.431,0,5.093c-0.979,0-1.957,0-2.936,0c0-3.834,0-7.669,0-11.503
		C75.122,27.275,77.894,27.159,80.511,27.197z"/>
	<path fill-rule="evenodd" clip-rule="evenodd" fill="#0093B5" d="M91.355,27.137c-0.13,0.649-0.284,1.273-0.479,1.857
		c-1.179,0-2.357,0-3.535,0c0,3.215,0,6.43,0,9.646c-0.979,0-1.957,0-2.936,0c0-3.195,0-6.391,0-9.586
		c-1.08-0.139-2.415-0.021-3.595-0.06c-0.096-0.484-0.103-1.375,0-1.857C84.326,27.137,87.84,27.137,91.355,27.137z"/>
	<path fill-rule="evenodd" clip-rule="evenodd" fill="#0093B5" d="M93.453,27.376c0.426-0.164,0.801,0.052,0.839,0.42
		c0.076,0.747-1.099,0.971-1.199,0.18C93.052,27.657,93.131,27.5,93.453,27.376z"/>
	<path fill-rule="evenodd" clip-rule="evenodd" fill="#0093B5" d="M94.95,27.376c0.462-0.211,0.808,0.117,0.839,0.42
		C95.918,29.058,93.782,28.145,94.95,27.376z"/>
	<path fill-rule="evenodd" clip-rule="evenodd" fill="#0093B5" d="M96.507,27.376c0.954-0.349,0.958,1.053,0.24,1.079
		C96.161,28.477,95.868,27.611,96.507,27.376z"/>
	<path fill-rule="evenodd" clip-rule="evenodd" fill="#0093B5" d="M98.065,27.376c0.953-0.278,0.919,1.024,0.24,1.079
		C97.741,28.5,97.281,27.606,98.065,27.376z"/>
	<path fill-rule="evenodd" clip-rule="evenodd" fill="#0093B5" d="M99.204,28.156c-0.155-0.583,0.35-0.961,0.779-0.839
		c0.601,0.171,0.483,1.109-0.18,1.139C99.502,28.468,99.451,28.304,99.204,28.156z"/>
	<path fill-rule="evenodd" clip-rule="evenodd" fill="#0093B5" d="M108.61,27.376c1.048-0.363,0.914,1.054,0.239,1.079
		C108.342,28.474,107.866,27.635,108.61,27.376z"/>
	<path fill-rule="evenodd" clip-rule="evenodd" fill="#0093B5" d="M110.108,27.376c0.955-0.368,0.994,0.974,0.359,1.079
		C109.881,28.552,109.387,27.655,110.108,27.376z"/>
	<path fill-rule="evenodd" clip-rule="evenodd" fill="#0093B5" d="M111.665,27.376c0.92-0.338,0.955,0.998,0.3,1.079
		C111.345,28.532,110.953,27.639,111.665,27.376z"/>
	<path fill-rule="evenodd" clip-rule="evenodd" fill="#0093B5" d="M113.762,27.376c0.38,0.456,0.122,1.061-0.359,1.079
		C112.524,28.488,112.622,26.944,113.762,27.376z"/>
	<path fill-rule="evenodd" clip-rule="evenodd" fill="#0093B5" d="M93.631,28.815c0.917-0.133,0.774,1.136,0.061,1.138
		C93.169,29.955,92.743,28.944,93.631,28.815z"/>
	<path fill-rule="evenodd" clip-rule="evenodd" fill="#0093B5" d="M94.89,29.893c-0.787-0.393,0.217-1.612,0.778-0.959
		C96,29.319,95.794,30.044,94.89,29.893z"/>
	<path fill-rule="evenodd" clip-rule="evenodd" fill="#0093B5" d="M97.107,29.833c-0.476,0.261-1.016-0.084-1.019-0.479
		c-0.004-0.405,0.594-0.721,0.958-0.539c0.005,0.002,0.234,0.225,0.24,0.239C97.383,29.285,97.279,29.546,97.107,29.833z"/>
	<path fill-rule="evenodd" clip-rule="evenodd" fill="#0093B5" d="M98.544,29.893c-1.556,0.146-0.777-1.454,0-1.078
		c0.037,0.018,0.284,0.271,0.3,0.479C98.868,29.607,98.674,29.627,98.544,29.893z"/>
	<path fill-rule="evenodd" clip-rule="evenodd" fill="#0093B5" d="M99.683,28.815c0.327-0.057,0.697,0.109,0.659,0.599
		c-0.074,0.927-1.519,0.372-1.139-0.359C99.25,28.966,99.445,28.856,99.683,28.815z"/>
	<path fill-rule="evenodd" clip-rule="evenodd" fill="#0093B5" d="M101.18,28.815c0.303-0.062,0.681,0.07,0.72,0.479
		c0.084,0.881-1.26,0.804-1.198,0C100.713,29.139,100.753,28.903,101.18,28.815z"/>
	<path fill-rule="evenodd" clip-rule="evenodd" fill="#0093B5" d="M107.232,28.815c0.312-0.053,0.623,0.045,0.659,0.479
		c0.09,1.092-1.538,0.512-1.139-0.239C106.808,28.95,106.974,28.858,107.232,28.815z"/>
	<path fill-rule="evenodd" clip-rule="evenodd" fill="#0093B5" d="M108.729,28.815c0.333-0.065,0.875,0.179,0.659,0.778
		c-0.038,0.107-0.274,0.292-0.299,0.3C108.42,30.123,107.693,29.017,108.729,28.815z"/>
	<path fill-rule="evenodd" clip-rule="evenodd" fill="#0093B5" d="M110.227,28.815c0.311-0.069,0.66,0.051,0.719,0.419
		c0.14,0.87-1.137,0.884-1.198,0.18C109.728,29.186,109.795,28.911,110.227,28.815z"/>
	<path fill-rule="evenodd" clip-rule="evenodd" fill="#0093B5" d="M111.725,28.815c0.362-0.092,0.767,0.088,0.719,0.599
		c-0.066,0.712-1.144,0.63-1.198,0C111.225,29.17,111.334,28.914,111.725,28.815z"/>
	<path fill-rule="evenodd" clip-rule="evenodd" fill="#0093B5" d="M113.342,28.815c0.417-0.055,0.784,0.265,0.6,0.778
		c-0.195,0.541-1.088,0.377-1.139-0.18C112.764,28.981,112.958,28.864,113.342,28.815z"/>
	<path fill-rule="evenodd" clip-rule="evenodd" fill="#0093B5" d="M114.84,28.815c0.334-0.052,0.701,0.105,0.659,0.599
		c-0.059,0.698-1.138,0.638-1.198,0C114.275,29.139,114.351,28.89,114.84,28.815z"/>
	<path fill-rule="evenodd" clip-rule="evenodd" fill="#0093B5" d="M99.563,30.312c0.437-0.156,0.764,0.074,0.779,0.479
		c0.036,0.986-1.39,0.621-1.139-0.18C99.241,30.496,99.346,30.39,99.563,30.312z"/>
	<path fill-rule="evenodd" clip-rule="evenodd" fill="#0093B5" d="M101.121,30.312c0.854-0.251,0.955,0.968,0.3,1.079
		C100.768,31.5,100.313,30.55,101.121,30.312z"/>
	<path fill-rule="evenodd" clip-rule="evenodd" fill="#0093B5" d="M107.052,30.312c1.034-0.43,1.049,1.161,0.18,1.079
		C106.875,31.357,106.361,30.599,107.052,30.312z"/>
	<path fill-rule="evenodd" clip-rule="evenodd" fill="#0093B5" d="M108.61,30.312c0.864-0.302,1.035,0.952,0.359,1.079
		C108.41,31.496,107.811,30.591,108.61,30.312z"/>
	<path fill-rule="evenodd" clip-rule="evenodd" fill="#0093B5" d="M113.103,30.312c0.574-0.279,0.939,0.147,0.839,0.659
		C113.72,32.102,112.087,30.807,113.103,30.312z"/>
	<path fill-rule="evenodd" clip-rule="evenodd" fill="#0093B5" d="M114.661,30.312c0.529-0.216,0.781,0.073,0.839,0.36
		c0.168,0.829-1.104,1.021-1.198,0.239C114.271,30.657,114.378,30.427,114.661,30.312z"/>
	<path fill-rule="evenodd" clip-rule="evenodd" fill="#0093B5" d="M99.683,31.75c0.791-0.141,0.818,1.149,0.06,1.138
		C99.061,32.878,98.91,31.888,99.683,31.75z"/>
	<path fill-rule="evenodd" clip-rule="evenodd" fill="#0093B5" d="M107.831,31.93c0.39,1.128-1.146,1.205-1.139,0.359
		C106.698,31.755,107.399,31.54,107.831,31.93z"/>
	<path fill-rule="evenodd" clip-rule="evenodd" fill="#0093B5" d="M113.881,31.93c0.419,1.17-1.166,1.204-1.078,0.3
		C112.852,31.729,113.485,31.566,113.881,31.93z"/>
	<path fill-rule="evenodd" clip-rule="evenodd" fill="#0093B5" d="M96.507,31.81c0.954-0.334,0.942,1.012,0.3,1.078
		C96.167,32.956,95.827,32.048,96.507,31.81z"/>
	<path fill-rule="evenodd" clip-rule="evenodd" fill="#0093B5" d="M98.005,31.81c1.086-0.432,0.966,1.077,0.239,1.078
		C97.892,32.889,97.218,32.124,98.005,31.81z"/>
	<path fill-rule="evenodd" clip-rule="evenodd" fill="#0093B5" d="M108.61,31.81c1.089-0.359,0.924,1.173,0.119,1.078
		C108.35,32.844,107.866,32.056,108.61,31.81z"/>
	<path fill-rule="evenodd" clip-rule="evenodd" fill="#0093B5" d="M114.661,31.81c0.416-0.169,0.914,0.051,0.839,0.599
		c-0.085,0.611-1.146,0.686-1.198-0.06C114.288,32.147,114.382,31.923,114.661,31.81z"/>
	<path fill-rule="evenodd" clip-rule="evenodd" fill="#0093B5" d="M96.687,33.248c0.902-0.108,0.713,1.24-0.119,1.079
		C96.036,34.223,95.941,33.338,96.687,33.248z"/>
	<path fill-rule="evenodd" clip-rule="evenodd" fill="#0093B5" d="M107.292,33.248c0.326-0.026,0.83,0.337,0.479,0.839
		c-0.033,0.047-0.17,0.236-0.18,0.24C106.798,34.631,106.247,33.335,107.292,33.248z"/>
	<path fill-rule="evenodd" clip-rule="evenodd" fill="#0093B5" d="M114.84,33.248c0.248-0.04,0.467,0.041,0.539,0.12
		c0.189,0.208,0.182,0.818-0.18,0.959c-0.376,0.146-0.897-0.071-0.898-0.539C114.3,33.434,114.495,33.304,114.84,33.248z"/>
	<path fill-rule="evenodd" clip-rule="evenodd" fill="#0093B5" d="M95.489,34.327c-0.748,0.084-0.954-0.288-0.898-0.659
		c0.098-0.646,1.268-0.609,1.198,0.18C95.766,34.105,95.634,34.091,95.489,34.327z"/>
	<path fill-rule="evenodd" clip-rule="evenodd" fill="#0093B5" d="M98.724,33.368c0.586,0.908-0.937,1.334-1.078,0.539
		C97.548,33.361,98.144,33.055,98.724,33.368z"/>
	<path fill-rule="evenodd" clip-rule="evenodd" fill="#0093B5" d="M108.549,34.327c-0.122-0.221-0.266-0.217-0.299-0.42
		c-0.119-0.71,0.925-0.961,1.138-0.359C109.532,33.953,109.336,34.426,108.549,34.327z"/>
	<path fill-rule="evenodd" clip-rule="evenodd" fill="#0093B5" d="M113.103,34.327c-0.121-0.217-0.36-0.33-0.359-0.539
		c0.001-0.52,0.981-0.851,1.198-0.24C114.083,33.945,113.897,34.424,113.103,34.327z"/>
	<path fill-rule="evenodd" clip-rule="evenodd" fill="#0093B5" d="M93.512,34.746c0.516-0.152,0.744,0.13,0.779,0.42
		c0.106,0.899-1.487,0.873-1.199-0.12C93.128,34.923,93.304,34.807,93.512,34.746z"/>
	<path fill-rule="evenodd" clip-rule="evenodd" fill="#0093B5" d="M95.01,34.746c0.948-0.304,0.976,1.157,0.119,1.079
		C94.519,35.768,94.42,34.935,95.01,34.746z"/>
	<path fill-rule="evenodd" clip-rule="evenodd" fill="#0093B5" d="M107.112,34.746c0.912-0.286,0.938,0.995,0.3,1.079
		C106.75,35.911,106.385,34.973,107.112,34.746z"/>
	<path fill-rule="evenodd" clip-rule="evenodd" fill="#0093B5" d="M109.388,35.525c-0.338,0.503-1.179,0.284-1.198-0.239
		C108.164,34.564,109.584,34.344,109.388,35.525z"/>
	<path fill-rule="evenodd" clip-rule="evenodd" fill="#0093B5" d="M113.942,35.525c-0.231,0.245-0.599,0.406-0.898,0.239
		c-0.119-0.066-0.297-0.393-0.3-0.479C112.714,34.55,114.199,34.368,113.942,35.525z"/>
	<path fill-rule="evenodd" clip-rule="evenodd" fill="#0093B5" d="M114.72,34.746c0.3-0.093,0.712,0.035,0.779,0.359
		c0.172,0.822-1.167,1.061-1.198,0.181C114.292,35.032,114.396,34.846,114.72,34.746z"/>
	<path fill-rule="evenodd" clip-rule="evenodd" fill="#0093B5" d="M94.111,36.303c0.688,0.967-1.042,1.4-1.019,0.42
		C93.103,36.279,93.616,36.02,94.111,36.303z"/>
	<path fill-rule="evenodd" clip-rule="evenodd" fill="#0093B5" d="M95.01,36.244c0.981-0.318,0.9,1.042,0.239,1.078
		C94.649,37.355,94.328,36.465,95.01,36.244z"/>
	<path fill-rule="evenodd" clip-rule="evenodd" fill="#0093B5" d="M97.107,36.244c0.425,0.542,0.067,1.1-0.42,1.078
		C95.868,37.287,95.955,35.828,97.107,36.244z"/>
	<path fill-rule="evenodd" clip-rule="evenodd" fill="#0093B5" d="M98.065,36.244c0.562-0.178,0.778,0.111,0.779,0.479
		c0.001,0.71-1.1,0.813-1.198,0.119C97.593,36.474,97.745,36.345,98.065,36.244z"/>
	<path fill-rule="evenodd" clip-rule="evenodd" fill="#0093B5" d="M100.163,36.244c0.344,0.411,0.126,1.024-0.3,1.078
		C98.962,37.435,98.902,35.807,100.163,36.244z"/>
	<path fill-rule="evenodd" clip-rule="evenodd" fill="#0093B5" d="M101.66,36.244c0.851,0.928-0.964,1.523-0.958,0.479
		C100.704,36.276,101.12,36.063,101.66,36.244z"/>
	<path fill-rule="evenodd" clip-rule="evenodd" fill="#0093B5" d="M103.158,36.483c0.802-1.152,1.743,0.854,0.539,0.839
		C103.312,37.317,103.103,37.049,103.158,36.483z"/>
	<path fill-rule="evenodd" clip-rule="evenodd" fill="#0093B5" d="M105.614,36.244c0.369,0.407,0.146,1.036-0.299,1.078
		C104.438,37.405,104.424,35.826,105.614,36.244z"/>
	<path fill-rule="evenodd" clip-rule="evenodd" fill="#0093B5" d="M107.112,36.244c0.962-0.308,0.892,0.991,0.3,1.078
		C106.813,37.411,106.351,36.487,107.112,36.244z"/>
	<path fill-rule="evenodd" clip-rule="evenodd" fill="#0093B5" d="M109.208,36.244c0.392,0.465,0.102,1.063-0.359,1.078
		C107.975,37.349,108.019,35.838,109.208,36.244z"/>
	<path fill-rule="evenodd" clip-rule="evenodd" fill="#0093B5" d="M109.748,36.903c-0.081-1.014,1.194-0.852,1.198-0.18
		C110.951,37.348,110.023,37.536,109.748,36.903z"/>
	<path fill-rule="evenodd" clip-rule="evenodd" fill="#0093B5" d="M111.665,36.244c1.015-0.333,0.967,1.156,0.12,1.078
		C111.229,37.271,111.047,36.446,111.665,36.244z"/>
	<path fill-rule="evenodd" clip-rule="evenodd" fill="#0093B5" d="M113.762,36.244c0.362,0.377,0.146,1.011-0.24,1.078
		C112.582,37.488,112.54,35.799,113.762,36.244z"/>
	<path fill-rule="evenodd" clip-rule="evenodd" fill="#0093B5" d="M115.5,36.483c0.149,1.082-1.143,0.979-1.198,0.3
		c-0.037-0.456,0.514-0.781,0.959-0.539C115.382,36.31,115.305,36.497,115.5,36.483z"/>
	<path fill-rule="evenodd" clip-rule="evenodd" fill="#0093B5" d="M93.631,37.681c0.348-0.05,0.511,0.058,0.6,0.24
		c0.358,0.733-1.131,1.343-1.139,0.3C93.09,37.862,93.257,37.736,93.631,37.681z"/>
	<path fill-rule="evenodd" clip-rule="evenodd" fill="#0093B5" d="M95.549,37.681c0.411,0.399,0.24,1.265-0.6,1.079
		C94.321,38.417,94.703,37.362,95.549,37.681z"/>
	<path fill-rule="evenodd" clip-rule="evenodd" fill="#0093B5" d="M96.987,38.76c-1.369,0.32-0.844-1.572,0.06-1.079
		c0.032,0.018,0.225,0.251,0.24,0.3C97.368,38.239,97.267,38.503,96.987,38.76z"/>
	<path fill-rule="evenodd" clip-rule="evenodd" fill="#0093B5" d="M97.766,38.64c-0.594-0.979,0.96-1.361,1.078-0.539
		C98.916,38.598,98.349,38.965,97.766,38.64z"/>
	<path fill-rule="evenodd" clip-rule="evenodd" fill="#0093B5" d="M99.204,37.921c0.398-0.503,1.196-0.249,1.139,0.359
		C100.277,38.964,98.984,38.998,99.204,37.921z"/>
	<path fill-rule="evenodd" clip-rule="evenodd" fill="#0093B5" d="M101.18,37.681c0.47-0.099,0.698,0.162,0.72,0.479
		c0.051,0.777-1.082,0.807-1.198,0.18C100.624,37.92,100.825,37.757,101.18,37.681z"/>
	<path fill-rule="evenodd" clip-rule="evenodd" fill="#0093B5" d="M109.269,38.64c-0.446,0.256-0.95,0.075-1.019-0.3
		C108.062,37.311,109.897,37.503,109.269,38.64z"/>
	<path fill-rule="evenodd" clip-rule="evenodd" fill="#0093B5" d="M110.707,37.681c0.085,0.271,0.231,0.296,0.239,0.479
		c0.039,0.824-1.508,0.775-1.198-0.18C109.843,37.686,110.27,37.604,110.707,37.681z"/>
	<path fill-rule="evenodd" clip-rule="evenodd" fill="#0093B5" d="M111.305,37.921c0.41-0.509,1.192-0.252,1.139,0.359
		C112.383,38.973,111.086,38.995,111.305,37.921z"/>
	<path fill-rule="evenodd" clip-rule="evenodd" fill="#0093B5" d="M113.103,38.76c-0.145-0.236-0.277-0.222-0.3-0.479
		c-0.064-0.739,0.994-0.891,1.139-0.24C114.02,38.393,113.903,38.855,113.103,38.76z"/>
	<path fill-rule="evenodd" clip-rule="evenodd" fill="#0093B5" d="M104.176,37.801c0.031,0.259,0.14,0.265,0.12,0.479
		c-0.071,0.761-1.261,0.597-1.139-0.18C103.21,37.763,103.591,37.496,104.176,37.801z"/>
	<path fill-rule="evenodd" clip-rule="evenodd" fill="#0093B5" d="M105.793,37.921c0.251,1.049-1.028,1.047-1.138,0.419
		C104.55,37.737,105.346,37.424,105.793,37.921z"/>
	<path fill-rule="evenodd" clip-rule="evenodd" fill="#0093B5" d="M92.614,8.685c-0.084,0.096-0.207,0.153-0.359,0.18
		C92.338,8.769,92.46,8.711,92.614,8.685z"/>
	<g>
		<path fill-rule="evenodd" clip-rule="evenodd" fill="#0093B5" d="M92.224,9.913c0.802-0.321,1.586-0.729,2.396-1.018"/>
		<path fill-rule="evenodd" clip-rule="evenodd" fill="#0093B5" d="M88.629,12.309c0.059-0.046,0.096-0.073,0.132-0.107"/>
		<path fill-rule="evenodd" clip-rule="evenodd" fill="#0093B5" d="M90.555,11.248c0.115-0.052,0.192-0.091,0.261-0.107"/>
		<path fill-rule="evenodd" clip-rule="evenodd" fill="#0093B5" d="M81.919,16.653c0.489-0.42,1.068-0.777,1.558-1.168"/>
		<path fill-rule="evenodd" clip-rule="evenodd" fill="#0093B5" d="M78.864,19.499c0.061-0.062,0.116-0.1,0.172-0.137"/>
		<path fill-rule="evenodd" clip-rule="evenodd" fill="#0093B5" d="M80.122,18.42c0.07-0.055,0.113-0.086,0.15-0.12"/>
		<path fill-rule="evenodd" clip-rule="evenodd" fill="#0093B5" d="M75.928,22.554c0.03-0.03,0.061-0.06,0.09-0.09"/>
		<path fill-rule="evenodd" clip-rule="evenodd" fill="#0093B5" d="M77.049,21.467c0.05-0.078,0.13-0.131,0.167-0.171"/>
		<path fill-rule="evenodd" clip-rule="evenodd" fill="#0093B5" d="M73.132,25.809c0.351-0.441,0.736-0.856,1.102-1.287"/>
		<path fill-rule="evenodd" clip-rule="evenodd" fill="#0093B5" d="M72.574,25.49c-0.297,0.354-0.586,0.723-0.869,1.078"/>
		<path fill-rule="evenodd" clip-rule="evenodd" fill="#0093B5" d="M91.685,9.553c0.554-0.287,1.103-0.533,1.677-0.779"/>
		<path fill-rule="evenodd" clip-rule="evenodd" fill="#0093B5" d="M91.804,9.074c0.08-0.045,0.16-0.088,0.24-0.06"/>
		<path fill-rule="evenodd" clip-rule="evenodd" fill="#0093B5" d="M88.45,11.051c0.363-0.185,0.733-0.385,1.078-0.599"/>
		<path fill-rule="evenodd" clip-rule="evenodd" fill="#0093B5" d="M88.27,11.65c0.64-0.285,1.296-0.667,1.917-1.019"/>
		<path fill-rule="evenodd" clip-rule="evenodd" fill="#0093B5" d="M85.274,13.268c0.417-0.247,0.783-0.534,1.199-0.779"/>
		<path fill-rule="evenodd" clip-rule="evenodd" fill="#0093B5" d="M85.094,14.017c0.523-0.394,1.146-0.71,1.678-1.078"/>
		<path fill-rule="evenodd" clip-rule="evenodd" fill="#0093B5" d="M82.219,15.665c0.488-0.332,0.891-0.681,1.378-1.019"/>
		<path fill-rule="evenodd" clip-rule="evenodd" fill="#0093B5" d="M79.403,18.181c0.391-0.349,0.851-0.706,1.259-1.048"/>
		<path fill-rule="evenodd" clip-rule="evenodd" fill="#0093B5" d="M76.708,20.847c0.348-0.397,0.8-0.711,1.138-1.108"/>
		<path fill-rule="evenodd" clip-rule="evenodd" fill="#0093B5" d="M74.161,23.603c0.009-0.001,0.018-0.002,0.026-0.003
			c0.347-0.364,0.658-0.757,1.022-1.105"/>
	</g>
</g>
</svg>
