<?xml version="1.0" encoding="utf-8"?>
<!-- Generator: Adobe Illustrator 16.0.0, SVG Export Plug-In . SVG Version: 6.00 Build 0)  -->
<!DOCTYPE svg PUBLIC "-//W3C//DTD SVG 1.1//EN" "http://www.w3.org/Graphics/SVG/1.1/DTD/svg11.dtd">
<svg version="1.1" id="no_shadow" xmlns="http://www.w3.org/2000/svg" xmlns:xlink="http://www.w3.org/1999/xlink" x="0px" y="0px"
	 width="212px" height="73px" viewBox="0 24 212 73" enable-background="new 0 24 212 73" xml:space="preserve">
<g>
	<g>
		<path fill-rule="evenodd" clip-rule="evenodd" fill="#4A4A4A" d="M47.493,40.059c0.915-1.036,1.904-1.786,2.966-2.253h-36.28
			c-2.552,0-4.64,2.088-4.64,4.64v38.129c0,0.51,0.086,0.999,0.24,1.459L47.493,40.059z"/>
		<polygon fill-rule="evenodd" clip-rule="evenodd" fill="#4A4A4A" points="23.02,85.214 46.833,85.214 46.837,81.352 
			26.495,81.328 		"/>
		<path fill-rule="evenodd" clip-rule="evenodd" fill="#4A4A4A" d="M53.707,43.377c0.001-0.946-0.246-1.419-0.742-1.42
			c-0.631,0-1.42,0.517-2.367,1.552L13.125,85.088c0.339,0.079,0.691,0.126,1.054,0.126h2.549l7.813-8.754l26.695,0.03l-0.01,8.724
			h1.082c0.47,0,0.923-0.071,1.352-0.203L53.707,43.377z M51.239,73.72l-24.195-0.027L51.27,47.092L51.239,73.72z"/>
	</g>
	<g>
		<path fill="#4A4A4A" d="M97.725,80.114h-7.703l-3.06-7.964H72.951l-2.889,7.964h-7.507l13.652-35.047h7.482L97.725,80.114
			L97.725,80.114z M84.693,66.25l-4.831-13.007L75.129,66.25H84.693L84.693,66.25z M97.686,80.114h7.075V45.067h-7.075V80.114
			L97.686,80.114z M107.938,80.114V45.067h25.981V51h-18.907v7.768h17.594v5.899h-17.594v9.539h19.576v5.908H107.938L107.938,80.114
			z M195.812,67.229l6.854,2.17c-1.053,3.828-2.799,6.667-5.247,8.528c-2.439,1.852-5.549,2.782-9.311,2.782
			c-4.651,0-8.479-1.592-11.473-4.766c-2.995-3.183-4.496-7.531-4.496-13.039c0-5.834,1.509-10.364,4.521-13.595
			c3.011-3.223,6.969-4.839,11.881-4.839c4.284,0,7.769,1.265,10.444,3.803c1.6,1.493,2.791,3.647,3.591,6.454l-7.01,1.673
			c-0.408-1.82-1.272-3.256-2.595-4.309c-1.313-1.053-2.913-1.575-4.79-1.575c-2.595,0-4.708,0.93-6.323,2.798
			c-1.616,1.861-2.424,4.88-2.424,9.058c0,4.431,0.792,7.589,2.391,9.466c1.591,1.885,3.663,2.823,6.21,2.823
			c1.885,0,3.5-0.596,4.854-1.795C194.245,71.677,195.216,69.792,195.812,67.229z"/>
		<path fill="#4A4A4A" d="M144.904,80.114V51h-10.396v-5.932h27.85V51h-10.371v29.115H144.904L144.904,80.114z M163.137,80.114
			V45.067h7.074v35.047H163.137z"/>
	</g>
</g>
</svg>
