<?xml version="1.0" encoding="utf-8"?>
<!-- Generator: Adobe Illustrator 16.0.0, SVG Export Plug-In . SVG Version: 6.00 Build 0)  -->
<!DOCTYPE svg PUBLIC "-//W3C//DTD SVG 1.1//EN" "http://www.w3.org/Graphics/SVG/1.1/DTD/svg11.dtd">
<svg version="1.1" id="Original" xmlns="http://www.w3.org/2000/svg" xmlns:xlink="http://www.w3.org/1999/xlink" x="0px" y="0px"
	 width="107px" height="103px" viewBox="-17.252 -15.752 107 103" enable-background="new -17.252 -15.752 107 103"
	 xml:space="preserve">
<g>
	<path opacity="0.3" fill="#4A4A4A" enable-background="new    " d="M30.939,71.585c0.259,0.601,0.412,1.316,0.412,2.17v6.61
		c0.467,0.05,0.938,0.091,1.413,0.126v-4.242C32.765,76.251,32.651,72.912,30.939,71.585z"/>
	<path opacity="0.3" fill="#4A4A4A" enable-background="new    " d="M65.062,71.438c0-5.124-11.867-9.279-26.508-9.279
		c-14.64,0-26.509,4.155-26.509,9.279c0,3.656,6.046,6.817,14.831,8.33v-5.896c0,0-0.233-2.827-2.825-3.768
		c0,0-1.531-1.061,0.116-1.651c0,0,4.753-0.394,6.529,2.633c-0.183-0.586-0.209-1.492,1.599-1.082c0,0,4.948,0.705,5.182,6.479
		l0.044,4.222c0.344,0.006,0.687,0.006,1.032,0.006c0.099,0,0.197,0,0.292,0l0.045-4.228c0.236-5.774,5.182-6.479,5.182-6.479
		c1.811-0.41,1.781,0.499,1.598,1.082c1.777-3.026,6.529-2.633,6.529-2.633c1.65,0.591,0.117,1.651,0.117,1.651
		c-2.59,0.94-2.824,3.768-2.824,3.768v6.019C58.676,78.435,65.062,75.194,65.062,71.438z"/>
	<path opacity="0.3" fill="#4A4A4A" enable-background="new    " d="M43.604,76.251v4.296c0.475-0.032,0.949-0.07,1.412-0.111
		v-6.681c0-0.854,0.156-1.569,0.412-2.17C43.721,72.912,43.604,76.251,43.604,76.251z"/>
	<path fill="#4A4A4A" d="M45.49,71.538c0,0,0.105-0.193,0.182-0.449c-0.09,0.156-0.168,0.323-0.24,0.496
		C45.449,71.569,45.467,71.553,45.49,71.538z"/>
	<path opacity="0.5" fill="#4A4A4A" enable-background="new    " d="M43.604,76.251c0,0,0.117-3.339,1.828-4.666
		c0.072-0.173,0.152-0.34,0.24-0.496c0.184-0.584,0.213-1.493-1.598-1.083c0,0-4.945,0.706-5.18,6.48l-0.045,4.226
		c1.625-0.006,3.215-0.062,4.754-0.165V76.251L43.604,76.251z"/>
	<path opacity="0.5" fill="#4A4A4A" enable-background="new    " d="M31.352,73.755c0-0.854-0.154-1.569-0.412-2.17
		c-0.02-0.016-0.037-0.032-0.059-0.047c0,0-0.105-0.193-0.185-0.449c-1.776-3.025-6.529-2.633-6.529-2.633
		c-1.649,0.589-0.116,1.649-0.116,1.649c2.592,0.94,2.825,3.771,2.825,3.771v5.895c1.427,0.244,2.924,0.447,4.476,0.598V73.755z"/>
	<path opacity="0.5" fill="#4A4A4A" enable-background="new    " d="M52.318,70.105c0,0,1.531-1.061-0.117-1.649
		c0,0-4.754-0.393-6.529,2.633c-0.078,0.256-0.186,0.449-0.186,0.449c-0.02,0.015-0.037,0.032-0.059,0.047
		c-0.258,0.601-0.412,1.316-0.412,2.17v6.681c1.553-0.135,3.049-0.319,4.477-0.544v-6.019
		C49.494,73.873,49.729,71.046,52.318,70.105z"/>
	<path fill="#4A4A4A" d="M30.939,71.585c-0.073-0.173-0.153-0.34-0.243-0.496c0.078,0.256,0.185,0.449,0.185,0.449
		C30.901,71.553,30.92,71.569,30.939,71.585z"/>
	<path opacity="0.5" fill="#4A4A4A" enable-background="new    " d="M32.765,76.251v4.24c1.538,0.12,3.13,0.196,4.756,0.217
		l-0.044-4.222c-0.233-5.774-5.182-6.479-5.182-6.479c-1.808-0.41-1.781,0.497-1.599,1.083c0.092,0.155,0.17,0.322,0.243,0.497
		C32.651,72.912,32.765,76.251,32.765,76.251z"/>
	<path opacity="0.25" fill="#4A4A4A" enable-background="new    " d="M8.276,44.159l-0.768,2.666c0,0-0.2,0.962,0.71,1.135
		c0.946-0.02,0.868-0.905,0.804-1.193L8.276,44.159L8.276,44.159z"/>
	<path fill="#4A4A4A" d="M85.336,32.981l0.07-0.347c-7.775-1.554-15.758-1.57-20.586-1.37c0.793-2.857,1.031-6.146,1.031-9.812
		c0-5.259-1.973-9.467-5.182-12.664c0.561-1.81,1.309-5.828-0.748-10.971c0,0-3.627-1.152-11.836,4.342
		c-3.215-0.804-6.639-1.201-10.066-1.201c-3.771,0-7.579,0.48-11.133,1.456c-8.469-5.78-12.21-4.596-12.21-4.596
		C12.235,3.92,13.746,8.441,14.206,9.563c-2.87,3.094-4.621,7.047-4.621,11.892c0,3.658,0.417,6.94,1.434,9.792
		C6.149,31.07-1.541,31.138-9.039,32.638l0.068,0.347c7.545-1.509,15.282-1.562,20.121-1.379c0.224,0.593,0.473,1.163,0.754,1.718
		c-4.784,0.154-12.958,0.765-20.786,2.974l0.095,0.34c7.893-2.226,16.133-2.821,20.875-2.966c2.857,5.33,8.496,8.772,18.525,9.852
		c-1.423,0.957-2.876,2.583-3.463,5.334c-1.941,0.929-8.083,3.193-11.766-3.145c0,0-2.062-3.771-6.012-4.066
		c0,0-3.83-0.059-0.264,2.387c0,0,2.562,1.209,4.331,5.746c0,0,2.306,7.736,13.433,5.254v7.992c0,0-0.234,2.83-2.826,3.773
		c0,0-1.531,1.061,0.117,1.646c0,0,7.186,0.592,7.186-5.299v-8.717c0,0-0.284-3.457,1.412-4.658v14.316c0,0-0.116,3.417-1.885,4.715
		c0,0-1.178,2.118,1.414,1.531c0,0,4.947-0.711,5.182-6.479l0.112-14.49h1.19l0.113,14.49c0.234,5.771,5.18,6.479,5.18,6.479
		c2.594,0.587,1.414-1.531,1.414-1.531c-1.768-1.297-1.885-4.715-1.885-4.715V49.894c1.697,1.324,1.412,4.535,1.412,4.535v8.717
		c0,5.891,7.186,5.299,7.186,5.299c1.65-0.586,0.117-1.646,0.117-1.646c-2.592-0.943-2.826-3.773-2.826-3.773V51.597
		c0-4.454-1.879-6.814-3.711-8.058c10.693-1.061,15.828-4.517,18.191-9.884c4.686,0.132,13.117,0.701,21.18,2.977l0.094-0.341
		c-8.018-2.262-16.393-2.847-21.123-2.984c0.223-0.542,0.42-1.104,0.594-1.685C69.514,31.418,77.529,31.42,85.336,32.981z
		 M10.32,43.114c-0.423,0-0.767-0.234-0.767-0.529c0-0.294,0.344-0.531,0.767-0.531s0.765,0.237,0.765,0.531
		C11.084,42.88,10.745,43.114,10.32,43.114z M11.676,43.763c0-0.288,0.344-0.528,0.765-0.528c0.425,0,0.769,0.237,0.769,0.528
		c0,0.295-0.344,0.532-0.769,0.532C12.018,44.295,11.676,44.058,11.676,43.763z M12.973,45.297c0-0.292,0.344-0.528,0.764-0.528
		c0.423,0,0.768,0.235,0.768,0.528c0,0.292-0.344,0.53-0.768,0.53C13.315,45.825,12.973,45.589,12.973,45.297z M14.916,47.595
		c-0.423,0-0.767-0.235-0.767-0.529c0-0.293,0.344-0.532,0.767-0.532c0.422,0,0.766,0.237,0.766,0.532
		C15.681,47.359,15.337,47.595,14.916,47.595z M16.211,49.243c-0.423,0-0.768-0.237-0.768-0.53s0.344-0.53,0.768-0.53
		c0.42,0,0.766,0.237,0.766,0.53S16.631,49.243,16.211,49.243z M17.979,50.657c-0.423,0-0.766-0.236-0.766-0.531
		c0-0.291,0.343-0.531,0.766-0.531c0.422,0,0.767,0.238,0.767,0.531C18.746,50.421,18.401,50.657,17.979,50.657z M20.454,51.602
		c-0.424,0-0.768-0.237-0.768-0.532c0-0.294,0.344-0.531,0.768-0.531c0.42,0,0.766,0.237,0.766,0.531
		C21.219,51.364,20.875,51.602,20.454,51.602z M22.917,51.602c-0.424,0-0.768-0.237-0.768-0.532c0-0.294,0.344-0.531,0.768-0.531
		c0.422,0,0.764,0.237,0.764,0.531C23.68,51.364,23.338,51.602,22.917,51.602z M25.415,51.19c-0.425,0-0.767-0.238-0.767-0.532
		c0-0.29,0.342-0.528,0.767-0.528c0.422,0,0.767,0.235,0.767,0.528C26.181,50.952,25.836,51.19,25.415,51.19z M37.936,41.55
		c-11.659,0-21.105-1.755-21.105-13.023c0-2.697,1.325-5.202,3.601-7.281c3.795-3.464,10.218-1.629,17.505-1.629
		c7.257,0,13.656-1.854,17.458,1.588c2.303,2.087,3.65,4.605,3.65,7.322C59.043,41.206,49.594,41.55,37.936,41.55z"/>
	<path opacity="0.3" fill="#4A4A4A" enable-background="new    " d="M55.393,21.204c-3.801-3.441-10.201-1.588-17.458-1.588
		c-7.287,0-13.71-1.835-17.505,1.629c-2.277,2.079-3.603,4.584-3.603,7.281c0,11.269,9.448,13.023,21.107,13.023
		c11.657,0,21.108-0.344,21.108-13.023C59.043,25.81,57.695,23.291,55.393,21.204z M26.523,35.495c-2.425,0-4.393-2.832-4.393-6.322
		c0-3.492,1.968-6.322,4.393-6.322c2.427,0,4.395,2.83,4.395,6.322S28.95,35.495,26.523,35.495z M50.086,35.495
		c-2.424,0-4.391-2.832-4.391-6.322c0-3.492,1.967-6.322,4.391-6.322c2.426,0,4.393,2.83,4.393,6.322S52.512,35.495,50.086,35.495z"
		/>
	<g>
		<ellipse fill="#4A4A4A" cx="26.577" cy="29.251" rx="2.925" ry="4.215"/>
		<ellipse fill="#4A4A4A" cx="50.139" cy="29.251" rx="2.924" ry="4.215"/>
		<circle fill="#4A4A4A" cx="37.998" cy="34.789" r="1.098"/>
		<path fill="#4A4A4A" d="M40.322,37.114c-0.182-0.067-0.385,0.031-0.451,0.215c-0.283,0.797-1.039,1.335-1.883,1.335
			c-0.845,0-1.602-0.536-1.886-1.335c-0.064-0.183-0.266-0.282-0.45-0.215c-0.182,0.064-0.28,0.267-0.218,0.449
			c0.386,1.08,1.407,1.804,2.551,1.804c1.142,0,2.167-0.724,2.548-1.804C40.602,37.381,40.506,37.179,40.322,37.114z"/>
	</g>
	<g opacity="0.12">
		<ellipse fill="#4A4A4A" cx="10.32" cy="42.585" rx="0.767" ry="0.529"/>
		<path fill="#4A4A4A" d="M13.208,43.763c0-0.288-0.344-0.528-0.769-0.528c-0.421,0-0.765,0.237-0.765,0.528
			c0,0.295,0.344,0.532,0.765,0.532C12.866,44.295,13.208,44.058,13.208,43.763z"/>
		<ellipse fill="#4A4A4A" cx="13.739" cy="45.298" rx="0.765" ry="0.529"/>
		<ellipse fill="#4A4A4A" cx="14.915" cy="47.063" rx="0.765" ry="0.531"/>
		<ellipse fill="#4A4A4A" cx="16.211" cy="48.713" rx="0.768" ry="0.53"/>
		<ellipse fill="#4A4A4A" cx="17.979" cy="50.126" rx="0.765" ry="0.531"/>
		<ellipse fill="#4A4A4A" cx="20.454" cy="51.07" rx="0.768" ry="0.532"/>
		<ellipse fill="#4A4A4A" cx="22.917" cy="51.07" rx="0.769" ry="0.532"/>
		<ellipse fill="#4A4A4A" cx="25.415" cy="50.661" rx="0.767" ry="0.531"/>
	</g>
	<path fill="#4A4A4A" d="M26.523,22.852c2.427,0,4.395,2.83,4.395,6.322c0,3.491-1.968,6.322-4.395,6.322
		c-2.425,0-4.393-2.831-4.393-6.322C22.13,25.681,24.098,22.852,26.523,22.852 M26.523,22.354c-2.696,0-4.891,3.059-4.891,6.82
		s2.194,6.82,4.891,6.82c2.698,0,4.893-3.059,4.893-6.82S29.221,22.354,26.523,22.354L26.523,22.354z"/>
	<path fill="#4A4A4A" d="M50.086,22.852c2.426,0,4.393,2.83,4.393,6.322c0,3.491-1.967,6.322-4.393,6.322
		c-2.424,0-4.391-2.831-4.391-6.322C45.695,25.681,47.662,22.852,50.086,22.852 M50.086,22.354c-2.697,0-4.893,3.059-4.893,6.82
		s2.195,6.82,4.893,6.82s4.893-3.059,4.893-6.82S52.783,22.354,50.086,22.354L50.086,22.354z"/>
</g>
</svg>
