<?xml version="1.0" encoding="utf-8"?>
<!-- Generator: Adobe Illustrator 16.0.0, SVG Export Plug-In . SVG Version: 6.00 Build 0)  -->
<!DOCTYPE svg PUBLIC "-//W3C//DTD SVG 1.1//EN" "http://www.w3.org/Graphics/SVG/1.1/DTD/svg11.dtd">
<svg version="1.1" id="no_shadow" xmlns="http://www.w3.org/2000/svg" xmlns:xlink="http://www.w3.org/1999/xlink" x="0px" y="0px"
	 width="212px" height="70px" viewBox="0 0 212 70" enable-background="new 0 0 212 70" xml:space="preserve">
<g>
	<path fill="#4A4A4A" d="M200.354,38.848V36.06h-3.52v-5.559h-3.691v5.559h-2.975v2.788h2.975v13.144
		c0,2.397,0.792,4.268,4.441,4.268c0.378,0,1.428-0.151,2.768-0.267v-2.629h-1.299c-0.756,0-2.221,0-2.221-1.562V38.844h3.521
		V38.848z"/>
	<path fill="#4A4A4A" d="M143.81,44.712l-3.688-0.843c-2.853-0.644-3.982-1.023-3.982-2.663c0-2.48,3.229-2.82,4.358-2.82
		c4.654,0,5.158,2.1,5.197,3.354h3.563c0-0.987-0.545-6.25-8.384-6.25c-4.316,0-8.299,1.982-8.299,6.368
		c0,2.74,2.01,4.151,5.072,4.836l4.272,0.953c3.144,0.724,4.358,1.257,4.358,2.857c0,2.207-2.391,3.164-5.026,3.164
		c-5.2,0-5.702-2.515-5.829-4.081h-3.559c0.122,2.4,0.755,6.974,9.428,6.974c4.948,0,8.681-2.479,8.681-6.59
		C149.973,47.266,148.381,45.741,143.81,44.712z"/>
	<path fill="#4A4A4A" d="M164.179,35.49c-6.996,0-10.184,5.374-10.184,10.519c0,5.145,3.188,10.518,10.184,10.518
		c7.004,0,10.188-5.373,10.188-10.518C174.366,40.863,171.183,35.49,164.179,35.49z M164.179,53.63c-5.28,0-6.372-4.953-6.372-7.621
		s1.092-7.62,6.372-7.62c5.282,0,6.375,4.952,6.375,7.62S169.464,53.63,164.179,53.63z"/>
	<path fill="#4A4A4A" d="M180.486,32.631v3.428h-3.021v2.788h3.021v17.145h3.689V38.848h3.689V36.06h-3.689v-2.472
		c0-1.604,0.586-2.329,2.178-2.329c0.461,0,1.049,0.042,1.512,0.077v-3.011c-0.589-0.035-1.133-0.076-1.682-0.076
		C182.583,28.25,180.486,29.621,180.486,32.631z"/>
	<path fill="#4A4A4A" d="M34.757,31.549l-1.627-1.57l-0.169-0.164c-0.49-0.469-0.756-1.097-0.762-1.765
		c0-0.667,0.257-1.284,0.724-1.756c0.008-0.008,0.011-0.016,0.02-0.019l1.574-1.555l2.404-2.382c0.884-0.861,1.38-1.997,1.374-3.106
		c-0.005-0.862-0.329-1.651-0.911-2.207c-1.358-1.31-3.772-1.081-5.384,0.514l-2.359,2.326l-1.57,1.547l-0.061,0.057
		c-1,0.995-2.652,1.01-3.675,0.027c0-0.004-0.002-0.004-0.004-0.004l-1.564-1.505l-2.711-2.615
		c-1.635-1.578-4.046-1.786-5.379-0.467c-0.568,0.56-0.879,1.337-0.871,2.194c0.008,1.105,0.524,2.237,1.42,3.094l2.616,2.527
		l1.63,1.574l0.03,0.026c0.487,0.468,0.759,1.098,0.759,1.765c0.002,0.674-0.259,1.3-0.739,1.776l-0.12,0.118l-1.589,1.574
		l-2.274,2.244c-0.874,0.865-1.379,1.99-1.37,3.099c0.002,0.866,0.33,1.654,0.911,2.215c1.361,1.312,3.773,1.077,5.379-0.515
		l2.312-2.275l1.568-1.547l0.111-0.111c0.997-0.978,2.599-1.002,3.626-0.071c0.018,0.019,0.041,0.034,0.061,0.049l1.508,1.459
		l2.835,2.731c1.629,1.57,4.045,1.78,5.372,0.465c0.57-0.56,0.882-1.341,0.875-2.198c-0.008-1.104-0.522-2.229-1.416-3.09
		L34.757,31.549z M36.75,38.182c-0.715,0.703-2.18,0.49-3.178-0.481l-4.35-4.188c-1.629-1.574-4.268-1.556-5.878,0.038l-3.986,3.929
		c-0.995,0.982-2.458,1.212-3.193,0.504c-0.351-0.34-0.421-0.782-0.431-1.094c0-0.675,0.341-1.415,0.909-1.975l3.987-3.933
		c0.777-0.774,1.207-1.807,1.202-2.9c-0.006-1.098-0.446-2.127-1.24-2.89l-4.275-4.123c-0.585-0.561-0.932-1.296-0.937-1.975
		c0-0.3,0.069-0.738,0.404-1.069c0.719-0.711,2.178-0.49,3.176,0.478l4.282,4.121c1.627,1.573,4.271,1.558,5.88-0.03l3.983-3.938
		c0.993-0.982,2.455-1.208,3.194-0.5c0.341,0.339,0.425,0.778,0.425,1.09c0,0.675-0.332,1.414-0.903,1.975l-3.982,3.934
		c-0.781,0.773-1.212,1.806-1.212,2.903c0.012,1.097,0.45,2.126,1.247,2.885l4.347,4.196c0.579,0.56,0.931,1.299,0.933,1.969
		C37.156,37.413,37.084,37.849,36.75,38.182z"/>
	<path fill="#4A4A4A" d="M63.042,55.992h-3.689V43.721c0-3.467-1.091-5.216-4.693-5.216c-2.098,0-5.783,1.214-5.783,6.626v10.861
		h-3.689V36.06h3.478v2.821h0.083c0.793-1.066,2.851-3.391,6.62-3.391c3.396,0,7.673,1.257,7.673,6.94V55.992z"/>
	<path fill="#4A4A4A" d="M88.149,49.741c-0.128,0.954-1.13,3.775-3.897,5.452c-1.008,0.609-2.434,1.371-5.951,1.371
		c-6.163,0-9.81-4.23-9.81-9.985c0-6.17,3.268-11.089,10.522-11.089c6.324,0,9.431,4.577,9.431,11.624h-16.01
		c0,4.153,2.137,6.555,6.368,6.555c3.479,0,5.532-2.438,5.659-3.93h3.688V49.741z M84.627,44.446
		c-0.21-3.088-1.635-5.941-6.122-5.941c-3.394,0-6.073,2.854-6.073,5.941H84.627z"/>
	<path fill="#4A4A4A" d="M93.766,42.12c0.168-4.764,3.647-6.63,9.054-6.63c1.762,0,8.132,0.46,8.132,5.568v11.467
		c0,0.839,0.463,1.181,1.217,1.181c0.334,0,0.794-0.075,1.215-0.151v2.438c-0.627,0.148-1.174,0.382-2.012,0.382
		c-3.27,0-3.771-1.524-3.897-3.049c-1.425,1.409-3.646,3.239-7.922,3.239c-4.026,0-6.872-2.325-6.872-5.754
		c0-1.674,0.543-5.565,6.665-6.252l6.074-0.685c0.88-0.077,1.927-0.378,1.927-2.363c0-2.093-1.675-3.234-5.152-3.234
		c-4.193,0-4.779,2.319-5.029,3.848h-3.397V42.12z M107.263,45.816c-0.589,0.42-1.509,0.726-6.077,1.259
		c-1.803,0.228-4.695,0.728-4.695,3.239c0,2.172,1.217,3.469,3.982,3.469c3.437,0,6.789-2.021,6.789-4.688V45.816z"/>
	<path fill="#4A4A4A" d="M122.435,55.992h-3.688V36.06h3.479v3.317h0.082c1.472-2.321,3.398-3.887,6.165-3.887
		c0.458,0,0.67,0.038,0.963,0.119v3.464h-1.384c-3.437,0-5.618,2.438-5.618,5.335v11.585H122.435z"/>
	<path fill="#4A4A4A" d="M40.788,25.657C40.01,25.056,39,24.72,37.941,24.72h-3.426l-1.574,1.555
		c-0.008,0.007-0.011,0.015-0.02,0.019h5.016c0.705,0,1.387,0.221,1.875,0.61c0.442,0.343,0.682,0.777,0.682,1.234
		c0,0.995-1.169,1.844-2.557,1.844h-4.81l1.627,1.57h3.183c2.279,0,4.131-1.535,4.131-3.415
		C42.07,27.201,41.599,26.302,40.788,25.657z"/>
	<path fill="#4A4A4A" d="M28.133,34.64c-0.02-0.016-0.042-0.035-0.061-0.049v5.407c0,1.383-0.855,2.554-1.869,2.554
		c-1.011,0-1.868-1.171-1.868-2.554v-5.225l-1.568,1.543v3.682c0,2.275,1.54,4.128,3.436,4.128c1.898,0,3.441-1.853,3.441-4.128
		V36.1L28.133,34.64z"/>
	<path fill="#4A4A4A" d="M26.203,12.243c-0.934,0-1.845,0.463-2.484,1.275c-0.616,0.773-0.949,1.79-0.949,2.853v3.616l1.564,1.505
		c0.001,0,0.004,0,0.004,0.004v-5.125c0-0.701,0.225-1.385,0.607-1.871c0.355-0.442,0.801-0.686,1.26-0.686
		c1.014,0,1.87,1.171,1.87,2.557v5.045l1.57-1.551v-3.494C29.641,14.094,28.097,12.243,26.203,12.243z"/>
	<path fill="#4A4A4A" d="M19.401,29.979h-4.939c-1.38,0-2.555-0.851-2.555-1.844c0-0.454,0.246-0.892,0.682-1.235
		c0.483-0.385,1.173-0.606,1.873-0.606h5.009l-1.63-1.574h-3.378c-1.062,0-2.075,0.335-2.841,0.937
		c-0.818,0.64-1.289,1.54-1.289,2.478c0,1.878,1.856,3.415,4.129,3.415h3.349L19.401,29.979z"/>
</g>
</svg>
