<?xml version="1.0" encoding="utf-8"?>
<!-- Generator: Adobe Illustrator 16.0.0, SVG Export Plug-In . SVG Version: 6.00 Build 0)  -->
<!DOCTYPE svg PUBLIC "-//W3C//DTD SVG 1.1//EN" "http://www.w3.org/Graphics/SVG/1.1/DTD/svg11.dtd">
<svg version="1.1" id="Layer_1" xmlns="http://www.w3.org/2000/svg" xmlns:xlink="http://www.w3.org/1999/xlink" x="0px" y="0px"
	 width="188.5px" height="59px" viewBox="-20 0 188.5 59" enable-background="new -20 0 188.5 59" xml:space="preserve">
<g>
	<path fill="#4C4B4B" d="M111.035,19.628c0,1.449-1.174,2.625-2.626,2.625h-1.576c-1.45,0-2.625-1.176-2.625-2.625v-1.682
		c0-1.449,1.175-2.625,2.625-2.625h1.576c1.452,0,2.626,1.176,2.626,2.625V19.628z"/>
</g>
<g>
	<g>
		<path fill="#4C4B4B" d="M53.586,10.42c0.443,0.269,1.355,0.567,2.065,0.567c0.725,0,1.024-0.236,1.024-0.63
			c0-0.409-0.237-0.599-1.119-0.9c-1.606-0.533-2.22-1.401-2.205-2.314c0-1.448,1.229-2.535,3.133-2.535
			c0.899,0,1.687,0.221,2.157,0.456l-0.407,1.655c-0.347-0.189-1.024-0.441-1.67-0.441c-0.582,0-0.912,0.237-0.912,0.613
			c0,0.38,0.3,0.569,1.244,0.9c1.467,0.504,2.064,1.261,2.078,2.377c0,1.45-1.117,2.506-3.322,2.506
			c-1.01,0-1.906-0.235-2.488-0.552L53.586,10.42z"/>
	</g>
	<g>
		<path fill="#4C4B4B" d="M67.651,8.561c0,2.818-1.999,4.111-4.063,4.111c-2.253,0-3.984-1.479-3.984-3.97
			c0-2.504,1.64-4.095,4.127-4.095C66.074,4.607,67.651,6.229,67.651,8.561z M62.075,8.642c0,1.323,0.553,2.314,1.575,2.314
			c0.943,0,1.53-0.929,1.53-2.332c0-1.133-0.44-2.297-1.53-2.297C62.517,6.327,62.075,7.506,62.075,8.642z"/>
	</g>
	<g>
		<path fill="#4C4B4B" d="M69.021,12.501V6.562h-1.025V4.797h1.025v-0.3c0-0.929,0.283-1.952,0.959-2.583
			c0.615-0.567,1.436-0.771,2.146-0.771c0.519,0,0.927,0.078,1.258,0.157l-0.093,1.842c-0.205-0.062-0.457-0.108-0.774-0.108
			c-0.786,0-1.114,0.613-1.114,1.369v0.395h1.542v1.765h-1.528v5.939H69.021z"/>
	</g>
	<g>
		<path fill="#4C4B4B" d="M76.628,2.72v2.079h1.717v1.764h-1.717V9.35c0,0.929,0.237,1.354,0.946,1.354
			c0.331,0,0.489-0.016,0.709-0.063l0.015,1.811c-0.296,0.111-0.88,0.206-1.541,0.206c-0.773,0-1.418-0.271-1.811-0.662
			c-0.442-0.456-0.662-1.196-0.662-2.281V6.562H73.26V4.799h1.024V3.363L76.628,2.72z"/>
	</g>
	<g>
		<path fill="#4C4B4B" d="M81.066,4.797l0.633,3.165c0.141,0.787,0.299,1.64,0.422,2.521h0.049c0.142-0.882,0.377-1.749,0.551-2.505
			l0.82-3.182h1.891l0.771,3.072c0.222,0.882,0.425,1.732,0.568,2.614h0.032c0.108-0.867,0.264-1.749,0.457-2.633l0.645-3.054h2.347
			l-2.364,7.704h-2.235l-0.724-2.695c-0.205-0.756-0.346-1.449-0.506-2.409h-0.03c-0.141,0.961-0.298,1.686-0.487,2.394
			l-0.772,2.713h-2.253l-2.253-7.704h2.44V4.797z"/>
	</g>
	<g>
		<path fill="#4C4B4B" d="M97.276,10.641c0,0.726,0.032,1.435,0.123,1.86h-2.156l-0.141-0.774h-0.05
			c-0.504,0.614-1.289,0.945-2.205,0.945c-1.559,0-2.486-1.134-2.486-2.362c0-2,1.795-2.944,4.521-2.944V7.271
			c0-0.426-0.221-1.008-1.404-1.008c-0.787,0-1.622,0.267-2.126,0.582l-0.44-1.543c0.534-0.301,1.592-0.692,2.99-0.692
			c2.57,0,3.374,1.513,3.374,3.339V10.641z M94.959,8.86c-1.26,0-2.238,0.3-2.238,1.213c0,0.615,0.41,0.914,0.946,0.914
			c0.583,0,1.09-0.395,1.245-0.882c0.032-0.126,0.047-0.27,0.047-0.409V8.86z"/>
	</g>
	<g>
		<path fill="#4C4B4B" d="M98.785,7.331c0-1.132-0.018-1.872-0.062-2.532h2.046l0.096,1.417h0.064
			c0.393-1.136,1.321-1.606,2.074-1.606c0.221,0,0.332,0.015,0.507,0.047v2.251c-0.19-0.031-0.378-0.062-0.647-0.062
			c-0.881,0-1.479,0.473-1.638,1.213c-0.032,0.159-0.047,0.347-0.047,0.536v3.907h-2.394V7.331z"/>
	</g>
	<g>
		<path fill="#4C4B4B" d="M106.095,9.411c0.062,0.991,1.055,1.467,2.171,1.467c0.82,0,1.482-0.109,2.127-0.332l0.314,1.62
			c-0.785,0.335-1.747,0.489-2.785,0.489c-2.615,0-4.112-1.512-4.112-3.921c0-1.954,1.214-4.111,3.891-4.111
			c2.49,0,3.434,1.938,3.434,3.843c0,0.41-0.046,0.773-0.079,0.945H106.095z M108.912,7.776c0-0.586-0.252-1.561-1.353-1.561
			c-1.011,0-1.418,0.928-1.482,1.561H108.912z"/>
	</g>
</g>
<g>
	<g>
		<path fill="#4C4B4B" d="M2.944,14.966c1.833-1.227,8.343-6.852,19.359-8.91C15.569,6.034,7.872,7.44,7.024,8.087
			C7.011,8.085,7,8.077,6.99,8.074C5.963,8.563,4.975,9.13,4.025,9.786c-0.89,0.618-1.474,1.1-1.816,1.473
			C-1.454,14.547,0.821,16.389,2.944,14.966z"/>
	</g>
	<g>
		<path fill="#4C4B4B" d="M26.023,11.496c7.947-1.693,11.311,1.896,11.256,1.733c-1.396-4.117-4.46-6.052-9.468-6.793
			c-6.274-0.083-14.017,3.104-17.007,4.814c-0.299,0.176-0.601,0.353-0.9,0.531C9.391,12.095,9.1,12.291,9.08,12.304l-0.012-0.018
			C4.41,15.112-0.24,18.411-3.688,22.212c-1.586,1.748-0.28,4.318,1.813,2.614C0.628,22.788,6.932,15.563,26.023,11.496z"/>
	</g>
	<g>
		<path fill="#4C4B4B" d="M37.87,15.255c-0.096-0.383-0.341-1.461-3.093-2.33c-1.375-0.438-2.826-0.569-4.264-0.572
			C19.715,12.327,1.959,21.956-1.793,27.481c-1.692,2.489-0.649,4.938,2.313,2.664C13,20.566,24.21,18.216,28.47,17.892
			c5.625-0.427,9.471,2.131,10.318,7.182C38.961,21.425,38.696,18.556,37.87,15.255z"/>
	</g>
	<g>
		<path fill="#4C4B4B" d="M33.096,19.263c-1.466-0.438-3.03-0.541-4.581-0.441c-1.554,0.094-3.104,0.365-4.629,0.738
			c-1.533,0.358-14.64,4.727-20.455,11.489c-1.452,1.688-0.852,3.416,2.128,2.198c3.58-1.463,6.857-3.968,10.494-5.653
			c6.031-2.794,12.805-3.981,16.469,2.589c2.598,4.654-2.312,10.078-5.082,12.784c-2.997,2.933,1.592,4.061,3.797,2.53
			c4.264-2.955,7.047-10.51,7.523-18.74C38.76,25.501,37.749,20.652,33.096,19.263z M37.111,27.259L37.111,27.259l0.001,0.018
			C37.112,27.271,37.111,27.265,37.111,27.259z"/>
	</g>
</g>
<g>
	<g>
		<path fill="#4C4B4B" d="M22.012,46.796c-1.831,1.23-8.342,6.853-19.357,8.912c6.732,0.021,14.432-1.386,15.281-2.031
			c0.012,0.002,0.023,0.01,0.033,0.012c1.027-0.488,2.017-1.055,2.964-1.713c0.891-0.615,1.474-1.098,1.816-1.471
			C26.416,47.218,24.136,45.375,22.012,46.796z"/>
	</g>
	<g>
		<path fill="#4C4B4B" d="M-1.062,50.268c-7.948,1.693-11.31-1.896-11.254-1.734c1.393,4.116,4.456,6.05,9.465,6.792
			c6.275,0.084,14.02-3.104,17.01-4.814c0.301-0.173,0.599-0.352,0.9-0.53c0.513-0.311,0.803-0.507,0.821-0.519l0.014,0.015
			c4.658-2.824,9.308-6.126,12.757-9.925c1.584-1.747,0.28-4.316-1.812-2.614C24.331,38.974,18.028,46.2-1.062,50.268z"/>
	</g>
	<g>
		<path fill="#4C4B4B" d="M-12.909,46.509c0.095,0.383,0.339,1.462,3.093,2.332c1.376,0.434,2.826,0.568,4.263,0.571
			c10.802,0.023,28.556-9.604,32.309-15.132c1.69-2.487,0.649-4.937-2.312-2.663C11.959,41.194,3.565,42.604,1.307,43.157
			c-1.576,0.372-3.182,0.646-4.815,0.713c-1.627,0.053-3.303-0.07-4.872-0.64c-0.781-0.284-4.598-1.488-5.447-6.54
			C-14.001,40.339-13.737,43.21-12.909,46.509z"/>
	</g>
	<g>
		<path fill="#4C4B4B" d="M-8.136,42.501c1.466,0.437,3.031,0.542,4.579,0.438c1.554-0.092,3.105-0.363,4.632-0.736
			c1.531-0.357,14.64-4.726,20.454-11.487c1.451-1.688,0.426-3.636-2.454-2.2c-3.267,1.631-6.274,3.715-10.167,5.654
			c-5.95,2.967-12.805,3.984-16.47-2.588c-2.595-4.652,2.314-10.078,5.082-12.783c3-2.936-1.589-4.062-3.797-2.531
			c-4.261,2.956-7.047,10.51-7.521,18.74C-13.801,36.261-12.787,41.114-8.136,42.501z M-12.148,34.505L-12.148,34.505l-0.002-0.017
			C-12.15,34.493-12.15,34.499-12.148,34.505z"/>
	</g>
</g>
<path fill="#4C4B4B" d="M66.193,44.55l3.191,10.558l7.108-0.228c-6.964-20.203-7.881-22.943-9.267-27.082L66.523,25.7
	c-0.252-0.745-0.484-1.537-0.73-2.377c-0.813-2.764-1.656-5.622-3.128-6.852c-0.866-0.725-2.293-1.158-3.817-1.158
	c-1.502,0-2.827,0.411-3.738,1.159c-1.921,1.58-3.026,5.265-4,8.513c-0.285,0.954-0.557,1.853-0.841,2.682
	c-1.175,3.455-2.374,7.126-3.532,10.674c-1.883,5.766-3.826,11.719-5.687,16.775h6.854l3.438-10.564h14.852V44.55z M53.453,37.16
	c1.596-4.962,3.248-10.09,4.715-15.287l0.189-0.674l0.264,0.649c1.976,4.853,3.543,10.223,5.059,15.414
	c0.2,0.684,0.401,1.369,0.602,2.054l0.09,0.308H52.663L53.453,37.16z"/>
<g>
	<path fill="#4C4B4B" d="M122.525,44.147c6.852-0.009,13.092-0.63,18.98-1.598c-0.141-5.747-0.02-10.271-3.199-13.265
		c-3.527-3.32-12.381-4.013-17.153-1.146c-6.806,4.09-6.407,22.035,0.229,26.074c4.712,2.867,12.87,1.198,19.21,0.686
		c0.032-1.79-0.186-3.324-0.457-4.805C133.458,50.872,121.613,52.992,122.525,44.147z M124.127,32.713
		c2.259-2.212,8.83-2.28,10.521,1.146c0.707,1.43,0.535,2.968,0.686,5.03c-3.733,0.991-8.672,0.782-13.037,1.146
		C122.531,36.855,122.302,34.5,124.127,32.713z"/>
</g>
<g>
	<path fill="#4C4B4B" d="M165.682,27.683c-0.366,1.389-0.396,3.111-0.688,4.573c-3.586-0.492-13.055-2.402-13.491,1.831
		c-0.442,4.251,7.919,4.656,10.749,6.173c2.886,1.547,5.057,6.054,3.431,10.523c-2.26,6.212-13.421,5.575-20.584,3.885
		c0.378-1.374,0.308-3.196,0.684-4.573c4.224,0.387,11.82,2.083,13.951-1.371c1.019-6.273-9.309-5.188-12.578-8.689
		c-1.93-2.068-2.317-6.999-0.914-9.606C148.997,25.3,158.747,26.192,165.682,27.683z"/>
</g>
<g>
	<rect x="81.377" y="14.87" fill="#4C4B4B" width="6.012" height="40.451"/>
</g>
<g>
	<rect x="92.895" y="14.87" fill="#4C4B4B" width="6.012" height="40.451"/>
</g>
<g>
	<rect x="104.414" y="26.342" fill="#4C4B4B" width="6.305" height="28.979"/>
</g>
</svg>
