<?xml version="1.0" encoding="utf-8"?>
<!-- Generator: Adobe Illustrator 16.0.0, SVG Export Plug-In . SVG Version: 6.00 Build 0)  -->
<!DOCTYPE svg PUBLIC "-//W3C//DTD SVG 1.1//EN" "http://www.w3.org/Graphics/SVG/1.1/DTD/svg11.dtd">
<svg version="1.1" id="Layer_1" xmlns="http://www.w3.org/2000/svg" xmlns:xlink="http://www.w3.org/1999/xlink" x="0px" y="0px"
	 width="203.982px" height="84.732px" viewBox="-29.385 -15.698 203.982 84.732"
	 enable-background="new -29.385 -15.698 203.982 84.732" xml:space="preserve">
<path fill="#4A4A4A" d="M160.923,23.422c-3.146-3.183-6.961-4.795-11.402-4.951H137.84v8.387l0.006,0.105v25.115h11.675
	c0.033,0,0.07-0.004,0.102-0.004h0.006c0.002,0,0.006,0,0.006,0c4.355-0.146,8.17-1.752,11.283-4.908
	c3.344-3.262,4.955-7.232,4.955-11.871S164.263,26.725,160.923,23.422z M153.531,39.816c-1.218,1.258-2.751,1.885-4.444,1.885
	h-0.467V28.924c0.119-0.039,0.316-0.039,0.467-0.039c1.693,0,3.226,0.63,4.444,1.89c1.257,1.258,1.887,2.752,1.887,4.521
	C155.418,37.062,154.788,38.596,153.531,39.816z"/>
<polygon fill="#4A4A4A" points="126.563,18.471 124.129,36.041 124.108,35.961 124.097,36.041 119.89,18.471 117.06,18.501 
	116.04,18.508 116.028,18.508 115.803,18.508 115.794,18.508 114.771,18.501 111.941,18.471 107.734,36.041 107.726,35.961 
	107.705,36.041 105.268,18.471 92.128,18.471 99.479,52.078 112.384,52.078 114.953,40.488 115.911,36.119 115.917,36.143 
	115.923,36.119 116.878,40.488 119.45,52.078 132.353,52.078 139.703,18.471 "/>
<path fill="#4A4A4A" d="M91.642,23.422c-3.219-3.298-7.184-4.948-11.854-4.951c-0.006,0-0.006,0-0.006,0h-0.009h-0.003
	c-4.638,0-8.608,1.653-11.872,4.951c-3.303,3.263-4.956,7.234-4.956,11.873s1.653,8.609,4.956,11.871
	c3.264,3.301,7.234,4.912,11.872,4.912c4.676,0,8.646-1.611,11.871-4.912c3.344-3.262,4.995-7.232,4.995-11.871
	S94.984,26.685,91.642,23.422z M84.054,39.539c-1.178,1.219-2.552,1.811-4.283,1.811c-1.652,0-3.105-0.592-4.245-1.811
	c-1.218-1.137-1.808-2.594-1.808-4.244c0-1.691,0.59-3.104,1.808-4.324c1.14-1.181,2.596-1.772,4.245-1.772
	c1.731,0,3.105,0.591,4.283,1.772c1.178,1.219,1.811,2.635,1.811,4.324C85.864,36.945,85.231,38.402,84.054,39.539z"/>
<path fill="#4A4A4A" d="M58.686,41.35c0.431-0.316,1.259-0.943,2.398-1.928c1.177-0.982,2.043-2.279,2.636-3.93
	c0.627-1.654,0.941-3.537,0.941-5.662c0-3.144-1.098-5.818-3.344-8.019c-2.002-2.044-4.402-3.146-7.19-3.341H34.72v0.483
	c4.539,4.095,7.4,10.024,7.4,16.62c0,6.531-2.806,12.414-7.275,16.506h12.322v-9.082l5.187,9.082h12.385L58.686,41.35z
	 M53.693,31.088c0,0.078,0,0.078,0,0.078c0,0.08,0,0.08,0,0.16v0.156c-0.081,0.627-0.356,1.139-0.866,1.652
	c-0.472,0.471-1.062,0.785-1.77,0.785H47.19c-0.008-0.002-0.016-0.004-0.025-0.004l0,0v-5.698h3.893
	c0.708,0.037,1.295,0.315,1.77,0.825c0.589,0.552,0.824,1.14,0.866,1.927V31.088z"/>
<g>
	<path fill="#4A4A4A" d="M34.575,63.705v-6.137h1.124v6.137H34.575z"/>
	<path fill="#4A4A4A" d="M47.411,60.422c0.441,0.627,0.8,1.184,1.076,1.67h0.026c-0.033-0.799-0.052-1.381-0.052-1.744v-2.779h1.123
		v6.137h-1.179l-2.001-2.826c-0.35-0.486-0.717-1.055-1.094-1.705h-0.028c0.034,0.756,0.056,1.338,0.056,1.748v2.781h-1.127v-6.139
		h1.179L47.411,60.422z"/>
	<path fill="#4A4A4A" d="M60.604,63.705H59.48v-5.197h-1.979v-0.939h5.083v0.939h-1.978L60.604,63.705L60.604,63.705z"/>
	<path fill="#4A4A4A" d="M71.623,62.766h3.018v0.939h-4.142v-6.137h3.975v0.939h-2.851v1.586h2.449v0.943h-2.449V62.766
		L71.623,62.766z"/>
	<path fill="#4A4A4A" d="M87.423,59.412c0,0.43-0.12,0.793-0.357,1.088c-0.237,0.299-0.604,0.52-1.099,0.664v0.02l1.825,2.523
		h-1.346L84.78,61.33h-0.771v2.377h-1.125v-6.139h1.865c0.309,0,0.594,0.02,0.865,0.055c0.266,0.033,0.49,0.088,0.681,0.156
		c0.357,0.139,0.64,0.342,0.833,0.613C87.323,58.662,87.423,59.004,87.423,59.412z M84.558,60.389c0.255,0,0.472-0.012,0.653-0.035
		c0.179-0.023,0.331-0.057,0.454-0.102c0.226-0.086,0.381-0.203,0.469-0.35c0.088-0.152,0.132-0.32,0.132-0.516
		c0-0.16-0.035-0.307-0.103-0.436c-0.07-0.127-0.19-0.223-0.35-0.299c-0.107-0.047-0.24-0.086-0.406-0.105
		c-0.16-0.025-0.363-0.033-0.6-0.033h-0.803v1.881h0.555v-0.006H84.558z"/>
	<path fill="#4A4A4A" d="M99.338,62.141h-2.314l-0.597,1.564h-1.199l2.435-6.137h1.03l2.438,6.137H99.94L99.338,62.141z
		 M98.172,59.045c-0.214,0.641-0.405,1.178-0.574,1.611l-0.21,0.545h1.587l-0.212-0.545c-0.166-0.438-0.356-0.973-0.574-1.611
		H98.172z"/>
	<path fill="#4A4A4A" d="M111.938,58.402c-0.308,0-0.592,0.051-0.847,0.152c-0.258,0.1-0.479,0.25-0.661,0.439
		c-0.188,0.193-0.335,0.432-0.436,0.717c-0.102,0.283-0.157,0.605-0.157,0.969c0,0.357,0.047,0.676,0.144,0.951
		c0.094,0.275,0.229,0.502,0.407,0.686c0.176,0.186,0.393,0.322,0.647,0.414c0.255,0.094,0.545,0.141,0.87,0.141
		c0.231,0,0.469-0.018,0.714-0.057c0.238-0.033,0.467-0.09,0.68-0.156v0.969c-0.219,0.061-0.45,0.105-0.696,0.145
		c-0.249,0.033-0.507,0.051-0.771,0.051c-0.521,0-0.979-0.072-1.374-0.221c-0.393-0.15-0.72-0.355-0.987-0.627
		c-0.267-0.273-0.463-0.594-0.594-0.971c-0.13-0.379-0.199-0.795-0.199-1.252c0-0.469,0.07-0.904,0.216-1.303
		c0.141-0.4,0.345-0.744,0.614-1.039c0.268-0.291,0.599-0.525,1.002-0.693c0.405-0.168,0.857-0.254,1.365-0.258
		c0.26,0,0.506,0.02,0.738,0.053c0.229,0.033,0.441,0.086,0.627,0.15v0.955c-0.244-0.078-0.471-0.131-0.684-0.158
		C112.346,58.418,112.138,58.402,111.938,58.402z"/>
	<path fill="#4A4A4A" d="M123.997,63.705h-1.125v-5.197h-1.98v-0.939h5.083v0.939h-1.976v5.197H123.997z"/>
	<path fill="#4A4A4A" d="M133.891,63.705v-6.137h1.125v6.137H133.891z"/>
	<path fill="#4A4A4A" d="M145.803,62.205c0.114-0.336,0.196-0.57,0.246-0.715c0.05-0.143,0.155-0.434,0.319-0.875l1.137-3.047h1.189
		l-2.402,6.137h-1.008l-2.4-6.137h1.199l1.137,3.047c0.162,0.441,0.272,0.732,0.322,0.875c0.047,0.145,0.129,0.379,0.243,0.715
		H145.803z"/>
	<path fill="#4A4A4A" d="M157.688,62.766h3.018v0.939h-4.14v-6.137h3.973v0.939h-2.851v1.586h2.449v0.943h-2.449V62.766
		L157.688,62.766z"/>
</g>
<path fill="#4A4A4A" d="M15.315,39.705c1.18,1.178,2.594,1.768,4.281,1.768c1.692,0,3.147-0.59,4.284-1.768
	c0.512-0.512,0.903-1.062,1.218-1.654h11.207c-0.551,3.539-2.123,6.646-4.836,9.281c-3.258,3.293-7.219,4.904-11.844,4.91
	c-0.042,0-0.088-0.004-0.125-0.004c-0.147,0-0.286-0.006-0.431-0.008c-3.015-0.104-5.841-0.973-8.261-2.43
	c-1.084-0.676-2.11-1.502-3.087-2.469c-3.3-3.264-4.907-7.234-4.907-11.875c0-4.639,1.605-8.607,4.907-11.871
	c3.298-3.297,7.222-4.949,11.849-4.952c0.031,0,0.062,0,0.092,0c0.006,0,0.012,0,0.018,0c0.595,0.017,1.161,0.046,1.72,0.089
	c3.873,0.378,7.238,1.996,10.07,4.863c2.714,2.634,4.323,5.699,4.837,9.277H25.145c-0.356-0.631-0.747-1.217-1.259-1.727
	c-1.141-1.179-2.594-1.771-4.286-1.771c-1.688,0-3.103,0.592-4.28,1.771c-1.143,1.219-1.729,2.635-1.729,4.322
	C13.587,37.109,14.178,38.566,15.315,39.705z"/>
<g>
	<path fill="#4A4A4A" d="M-17.344,31.154c1.157,0.762,2.717,0.439,3.474-0.721c0.763-1.156,0.438-2.713-0.72-3.474
		c-1.156-0.762-2.715-0.436-3.474,0.719C-18.825,28.836-18.501,30.393-17.344,31.154z"/>
	<path fill="#4A4A4A" d="M-9.251,17.15c-0.534-0.352-1.248-0.203-1.596,0.329c-0.347,0.531-0.203,1.247,0.328,1.595
		c0.532,0.349,1.248,0.203,1.596-0.329C-8.571,18.211-8.722,17.5-9.251,17.15z"/>
	<path fill="#4A4A4A" d="M-15.239,19.987c0.725,0.479,1.703,0.278,2.178-0.451c0.479-0.727,0.279-1.703-0.447-2.181
		c-0.726-0.477-1.705-0.275-2.182,0.452C-16.167,18.534-15.964,19.51-15.239,19.987z"/>
	<path fill="#4A4A4A" d="M-13.72,13.858c1.444,0.95,3.389,0.549,4.337-0.896c0.952-1.446,0.549-3.389-0.896-4.338
		c-1.45-0.951-3.39-0.551-4.342,0.897C-15.565,10.968-15.165,12.909-13.72,13.858z"/>
	<circle fill="#4A4A4A" cx="-5.498" cy="8.485" r="1.998"/>
	<path fill="#4A4A4A" d="M-3.218,2.747c0.684,0.453,1.6,0.263,2.054-0.423c0.448-0.683,0.259-1.601-0.43-2.05
		C-2.276-0.175-3.19,0.015-3.643,0.698C-4.091,1.378-3.9,2.296-3.218,2.747z"/>
	<path fill="#4A4A4A" d="M3.605,5.897C4.68,6.6,6.116,6.302,6.819,5.229c0.706-1.07,0.407-2.511-0.662-3.215
		C5.088,1.311,3.646,1.608,2.94,2.679C2.234,3.751,2.533,5.19,3.605,5.897z"/>
	<circle fill="#4A4A4A" cx="4.784" cy="-5.92" r="1.996"/>
	<path fill="#4A4A4A" d="M12.14-1.185c1.354,0.892,3.169,0.513,4.059-0.838c0.718-1.094,0.605-2.495-0.179-3.461
		c0.34-0.03,0.661-0.202,0.864-0.51c0.346-0.531,0.201-1.245-0.334-1.594c-0.531-0.348-1.242-0.2-1.594,0.332
		c-0.182,0.276-0.229,0.596-0.159,0.891c-1.257-0.482-2.723-0.046-3.5,1.125C10.412-3.888,10.789-2.073,12.14-1.185z"/>
	<path fill="#4A4A4A" d="M19.729,3.625c1.075,0.706,2.513,0.406,3.216-0.665c0.706-1.069,0.408-2.511-0.662-3.216
		c-1.071-0.705-2.511-0.405-3.215,0.666C18.361,1.482,18.658,2.92,19.729,3.625z"/>
	<circle fill="#4A4A4A" cx="25.252" cy="-5.636" r="2.321"/>
	<path fill="#4A4A4A" d="M29.063-0.206c0.686,0.449,1.601,0.262,2.053-0.423c0.447-0.684,0.258-1.6-0.426-2.052
		c-0.682-0.447-1.6-0.258-2.048,0.426C28.188-1.572,28.38-0.654,29.063-0.206z"/>
	<circle fill="#4A4A4A" cx="37.957" cy="11.719" r="1.998"/>
	<path fill="#4A4A4A" d="M-12.774,49.6c-0.921-0.604-2.16-0.35-2.769,0.574c-0.608,0.922-0.349,2.158,0.575,2.766
		c0.92,0.605,2.157,0.35,2.762-0.572C-11.599,51.445-11.854,50.205-12.774,49.6z"/>
	<path fill="#4A4A4A" d="M-19.577,44.754c-0.681-0.449-1.601-0.262-2.052,0.422c-0.45,0.686-0.258,1.602,0.423,2.051
		c0.687,0.449,1.605,0.26,2.054-0.422C-18.704,46.119-18.894,45.201-19.577,44.754z"/>
	<path fill="#4A4A4A" d="M35.19,13.428c-0.286-0.188-0.598-0.309-0.916-0.373l0.014-0.002c0,0-0.663-0.051-0.623-0.713
		c0.094-0.075,0.175-0.155,0.242-0.259c0.348-0.532,0.199-1.248-0.332-1.597c-0.531-0.348-1.246-0.202-1.596,0.332
		c-0.348,0.531-0.201,1.248,0.333,1.594c0.107,0.072,0.225,0.119,0.348,0.149c0.008,0.03,0.026,0.054,0.046,0.076
		c0.232,0.225,0.133,0.459,0.058,0.571c-0.317,0.134-0.616,0.324-0.865,0.579c-0.149-0.251-0.353-0.468-0.61-0.638
		c-0.51-0.337-1.111-0.404-1.656-0.248c0.285-1.171-0.166-2.443-1.232-3.145c-0.35-0.229-0.732-0.375-1.125-0.439
		c0.158-0.129,0.298-0.281,0.414-0.458c0.194-0.295,0.287-0.626,0.314-0.958c0.002,0.002,0.008,0.008,0.008,0.008
		s0.367-1.465,1.564-0.894c1.071,0.706,2.513,0.407,3.217-0.664s0.406-2.513-0.662-3.218c-1.072-0.704-2.514-0.406-3.22,0.664
		c-0.259,0.396-0.379,0.839-0.379,1.278l-0.003-0.003c0,0,0,0.013,0,0.027c0,0,0,0.002,0,0.004c0,0.186-0.046,1.259-1.178,1.17
		c-0.005,0-0.006,0-0.006,0C27.27,6.21,27.197,6.146,27.12,6.09c-0.877-0.575-2.031-0.371-2.666,0.434
		c-0.176-0.399-0.463-0.756-0.854-1.015c-1.075-0.706-2.513-0.406-3.218,0.661c-0.113,0.181-0.204,0.369-0.267,0.566
		c-0.034-0.029-0.072-0.054-0.107-0.076c-0.58-0.381-1.27-0.467-1.889-0.296c0.117-0.126,0.229-0.266,0.33-0.416
		c0.889-1.351,0.514-3.166-0.843-4.054c-1.349-0.889-3.166-0.514-4.054,0.838c-0.468,0.716-0.582,1.556-0.391,2.321
		c-1.153-0.539-2.556-0.17-3.279,0.927c-0.449,0.686-0.53,1.502-0.293,2.228C9.613,8.267,9.632,8.325,9.655,8.38
		c0.028,0.067,0.06,0.135,0.093,0.203c0.482,0.906,1.251,0.688,1.777,1.013c0.006,0.004,0.008,0.008,0.014,0.013
		c0.499,0.271,0.843,0.788,0.843,1.398c0,0.879-0.717,1.593-1.593,1.593c-0.879,0-1.592-0.714-1.592-1.593
		c0-0.083,0.014-0.159,0.024-0.239c0-0.01,0-0.016,0-0.024C9.315,9.788,8.986,9.39,8.839,9.264c-0.023-0.02-0.044-0.036-0.07-0.055
		c-0.324-0.215-0.69-0.316-1.052-0.323c-0.001,0-0.001-0.003-0.001-0.003c-0.009,0-0.016,0-0.021,0c-0.004,0-0.009,0-0.015,0
		C7.599,8.877,7.513,8.886,7.411,8.907C7.24,8.93,7.07,8.973,6.91,9.038C6.683,9.098,6.429,9.147,6.151,9.138
		C5.755,9.122,5.398,8.754,4.873,8.547c-0.003,0-0.005,0-0.006,0C3.849,8.117,2.648,8.455,2.023,9.407
		c-0.311,0.471-0.422,1.012-0.362,1.53c0,0.009-0.001,0.012-0.001,0.019c0.003,0.03,0.01,0.052,0.017,0.08
		c0.054,0.355,0.196,0.699,0.411,0.999c0.036,0.13-0.043,0.175-0.184,0.168c-0.015,0.003-0.031,0.007-0.051,0.009
		c-0.081,0.01-0.159,0.029-0.241,0.047c-0.069,0.012-0.143,0.029-0.219,0.051c-0.156,0.039-0.258,0.104-0.335,0.159
		c-0.039,0.022-0.078,0.05-0.116,0.075c-0.093,0.032-0.262,0.028-0.329-0.322c-0.028-0.069-0.053-0.144-0.08-0.214
		c-0.015-0.04-0.03-0.08-0.044-0.12c-0.027-0.064-0.051-0.123-0.08-0.175H0.407c-0.177-0.344-0.44-0.646-0.783-0.873
		c-1.073-0.704-2.514-0.406-3.219,0.664c-0.705,1.072-0.406,2.515,0.664,3.22c0.502,0.326,1.078,0.432,1.621,0.349l0.065,0.043
		c0.291-0.156,0.626-0.255,0.979-0.255c1.161,0,2.104,0.943,2.104,2.102c0,1.16-0.942,2.103-2.104,2.103
		c-1.16,0-2.1-0.942-2.1-2.103c0-0.013,0.004-0.026,0.004-0.035c-0.145-0.597-0.502-1.148-1.059-1.512
		c-1.16-0.762-2.717-0.438-3.476,0.72c-0.762,1.157-0.439,2.714,0.722,3.472c0.343,0.228,0.723,0.356,1.111,0.401
		c-0.807,0.003-1.593,0.394-2.074,1.11c-0.081-0.066-0.166-0.131-0.257-0.188c-1.444-0.95-3.387-0.548-4.338,0.9
		c-0.95,1.441-0.546,3.387,0.899,4.336c0.478,0.312,1.016,0.48,1.549,0.505c-0.09,0.099-0.175,0.204-0.251,0.318
		c-0.762,1.157-0.439,2.713,0.719,3.473c0.317,0.209,0.664,0.326,1.021,0.379c0.813,0.559,0.906,1.572,0.468,2.295
		c-0.106,0.145-0.94,1.162-2.193,0.314c-0.194-0.234-0.421-0.445-0.694-0.621c-1.444-0.951-3.382-0.549-4.333,0.898
		c-0.722,1.096-0.66,2.477,0.042,3.498c-0.481-0.133-0.99-0.074-1.43,0.146c0.071-0.824-0.298-1.658-1.036-2.145
		c-1.075-0.705-2.511-0.406-3.217,0.664c-0.706,1.074-0.406,2.51,0.663,3.217c0.78,0.512,1.748,0.492,2.493,0.035
		c-0.001,0.652,0.311,1.291,0.903,1.678c0.918,0.604,2.157,0.346,2.765-0.574c0.059-0.09,0.104-0.176,0.148-0.27l0,0
		c0,0,0,0,0-0.002c0.093-0.203,0.148-0.414,0.168-0.631c0.294-0.697,0.819-0.783,1.049-0.783c0.029,0,0.059,0.004,0.088,0.004
		c0.015,0.002,0.029,0.002,0.029,0.002h-0.013c0.287-0.006,0.575-0.049,0.846-0.131c0,0.002,0,0.006,0,0.006
		c0.008-0.004,0.014-0.006,0.02-0.01c0.228-0.07,0.447-0.16,0.657-0.281c0.64-0.111,0.83,0.475,0.663,0.973
		c0,0.004-0.002,0.004-0.002,0.006c-0.068,0.098-0.114,0.205-0.163,0.311c-0.006,0.01-0.01,0.018-0.02,0.027
		c-0.076,0.09-0.096,0.176-0.088,0.254c-0.298,0.965,0.049,2.039,0.932,2.623c0.436,0.287,0.93,0.404,1.41,0.375
		c0.167-0.061,0.346-0.1,0.533-0.1c0.122-0.035,0.236-0.076,0.35-0.129c-0.022,0.053-0.031,0.105-0.045,0.16
		c0.748,0.141,1.317,0.797,1.317,1.588c0,0.896-0.727,1.621-1.619,1.621c-0.712,0-1.311-0.463-1.528-1.102
		c-0.051-0.094-0.099-0.205-0.146-0.346c-0.015-0.223-0.063-0.447-0.143-0.656c-0.001-0.012-0.003-0.02-0.003-0.031
		c-0.002-0.002-0.005-0.002-0.006-0.004c-0.17-0.434-0.467-0.822-0.884-1.096c-1.071-0.703-2.514-0.406-3.216,0.666
		c-0.706,1.074-0.406,2.512,0.662,3.219c0.911,0.594,2.089,0.465,2.852-0.25c0.016-0.008,0.031-0.02,0.043-0.033
		c0.01-0.01,0.023-0.021,0.034-0.031c0.005-0.006,0.011-0.012,0.016-0.018c0.546-0.586,0.712-0.189,0.76,0.156
		c-0.327,1.195,0.129,2.51,1.218,3.223c0.045,0.031,0.094,0.059,0.145,0.086c-0.268,0.168-0.498,0.395-0.683,0.672
		c-0.704,1.072-0.406,2.512,0.663,3.219c1.064,0.699,2.485,0.408,3.196-0.639c-0.001,0.834,0.403,1.654,1.153,2.146
		c1.183,0.779,2.765,0.445,3.541-0.732c0.282-0.592,0.186-1.049,0.186-1.049l0.018,0.006c-0.011-0.051-0.016-0.102-0.016-0.158
		c0-0.539,0.438-0.977,0.979-0.977c0.54,0,0.979,0.438,0.979,0.977c0,0.322-0.155,0.604-0.397,0.783h0.003H2.318
		c-0.107,0.084-0.232,0.143-0.37,0.172c-0.087,0.047-0.173,0.104-0.262,0.17c-0.031,0.031-0.065,0.064-0.099,0.096
		c-0.047,0.047-0.099,0.088-0.14,0.139c-0.09,0.1-0.171,0.205-0.246,0.318c-0.337,0.516-0.485,1.094-0.47,1.664l0,0
		c-0.283,1.57-1.387,0.844-1.387,0.844c-0.683-0.447-1.601-0.26-2.051,0.426c-0.45,0.684-0.258,1.6,0.425,2.049
		s1.604,0.262,2.052-0.424c0.042-0.061,0.073-0.131,0.104-0.197v0.008c0,0,0.005-0.012,0.011-0.029
		c0.018-0.035,0.031-0.08,0.045-0.121c0.144-0.342,0.591-1.15,1.515-0.75c0.163,0.191,0.358,0.363,0.582,0.512
		c0.252,0.162,0.522,0.285,0.798,0.361c-0.048,0.051-0.093,0.105-0.133,0.168c-0.352,0.529-0.203,1.246,0.328,1.594
		c0.534,0.348,1.248,0.203,1.596-0.332c0.307-0.467,0.229-1.078-0.157-1.455c0.616-0.189,1.17-0.59,1.548-1.164
		c0.137-0.207,0.237-0.424,0.318-0.652c0.234,0.527,0.617,0.99,1.133,1.33c1.445,0.951,3.387,0.547,4.334-0.896
		c0.126-0.191,0.226-0.393,0.301-0.596c0.352,0.215-0.469-0.918-0.469-0.918c-1.467-0.582-2.899-1.326-4.299-2.24
		c-0.043-0.031-0.093-0.062-0.137-0.094c-0.16-0.102-0.316-0.217-0.471-0.324c-3.281-2.324-5.787-5.355-7.422-8.752
		c-0.709-1.547-1.253-3.215-1.625-5.01C-3.617,33.738-2.505,28.14,0.89,22.974c3.393-5.166,8.093-8.406,14.156-9.624
		c6.086-1.262,11.66-0.224,16.82,3.154c0.031,0.025,0.066,0.043,0.097,0.067c0.006,0.003,0.011,0.006,0.018,0.013
		c0.653,0.451,1.265,0.902,1.849,1.353c0.793,0.639,2.805-1.882,2.482-1.907C36.501,15.06,36.087,14.014,35.19,13.428z
		 M-4.779,20.03c0.036,0,0.073-0.009,0.111-0.012c0.003,0.01,0.006,0.021,0.007,0.031C-4.698,20.042-4.741,20.033-4.779,20.03z
		 M-1.837,21.094l0.018-0.017c0.001,0,0.002,0.004,0.007,0.004C-1.821,21.086-1.829,21.09-1.837,21.094z M10.831,14.635
		c0.003-0.019,0.005-0.035,0.008-0.055c0.071-0.031,0.141-0.059,0.21-0.087c0.031,0.004,0.065,0.013,0.101,0.016
		C11.042,14.552,10.938,14.592,10.831,14.635z"/>
</g>
</svg>
