<?xml version="1.0" encoding="utf-8"?>
<!-- Generator: Adobe Illustrator 16.0.0, SVG Export Plug-In . SVG Version: 6.00 Build 0)  -->
<!DOCTYPE svg PUBLIC "-//W3C//DTD SVG 1.1//EN" "http://www.w3.org/Graphics/SVG/1.1/DTD/svg11.dtd">
<svg version="1.1" id="no_shadow" xmlns="http://www.w3.org/2000/svg" xmlns:xlink="http://www.w3.org/1999/xlink" x="0px" y="0px"
	 width="212px" height="123px" viewBox="0 -26.5 212 123" enable-background="new 0 -26.5 212 123" xml:space="preserve">
<g>
	<g>
		<g>
			<path fill="#4A4A4A" d="M30.306,52.157V20.012h4.214h8.227v4.261H34.52v8.964h7.021v4.264H34.52v10.238h8.227v4.418H30.306z"/>
			<path fill="#4A4A4A" d="M53.679,52.157V30.392h-4.213v21.766h-4.213V26.049h8.826c2.057,0,3.763,1.734,3.763,3.79v22.318H53.679z
				"/>
			<path fill="#4A4A4A" d="M69.676,52.151h-5.065c-2.109,0-3.764-1.75-3.764-3.804V29.839c0-2.056,1.655-3.79,3.764-3.79h5.065
				c2.056,0,3.759,1.686,3.759,3.79v4.514h-4.212v-3.962H65.01v17.333h4.213v-5.961h-2.356v-4.261h6.568v10.845
				C73.436,50.401,71.732,52.151,69.676,52.151z"/>
			<path fill="#4A4A4A" d="M78.75,23.421c-1.455,0-2.607-1.201-2.607-2.657c0-1.504,1.152-2.658,2.607-2.658
				s2.609,1.154,2.609,2.658C81.359,22.22,80.205,23.421,78.75,23.421z M76.594,52.157V26.049h4.263v26.108H76.594z"/>
			<path fill="#4A4A4A" d="M92.143,52.157V30.392h-4.214v21.766h-4.213V26.049h8.829c2.054,0,3.759,1.734,3.759,3.79v22.318H92.143z
				"/>
			<path fill="#4A4A4A" d="M108.169,52.173h-5.063c-2.109,0-3.794-1.722-3.794-3.825V29.839c0-2.104,1.654-3.802,3.762-3.802h5.064
				c2.107,0,3.763,1.747,3.763,3.802v11.91h-8.426v5.99h4.214v-2.904h4.212v3.513C111.9,50.451,110.278,52.173,108.169,52.173z
				 M103.475,30.392v7.103h4.214v-7.103H103.475z"/>
		</g>
		<g>
			<path fill="#4A4A4A" d="M128.32,52.161h-4.865c-2.056,0-3.761-1.751-3.761-3.806v-0.709h8.224v-6.512h-4.562
				c-2.107,0-3.763-1.706-3.763-3.814V19.998h4.162v16.88h4.163v-16.88h4.162v28.357C132.08,50.41,130.427,52.161,128.32,52.161z"/>
			<path fill="#4A4A4A" d="M138.682,52.161c-2.105,0-3.761-1.751-3.761-3.858V36.869c0-2.057,1.655-3.759,3.761-3.759h4.562v-2.809
				h-8.274v-4.264h8.274c2.709,0,4.266,2.005,4.266,4.264v21.859H138.682z M143.244,36.878h-4.16v10.778h4.16V36.878z"/>
			<path fill="#4A4A4A" d="M159.204,52.161l-4.083-11.026l-0.476,0.01l-0.001,11.017h-4.146l-0.045-26.12h8.83
				c2.055,0,3.76,1.752,3.76,3.806v7.473c0,2.058-1.646,3.827-3.7,3.827l4.123,11.014H159.204z M158.883,30.297h-4.215v6.581h4.215
				V30.297z"/>
			<path fill="#4A4A4A" d="M169.573,52.161c-2.107,0-3.763-1.799-3.763-3.858V29.847c0-2.105,1.655-3.821,3.763-3.821h4.561v-7.762
				h4.264v33.896H169.573z M174.134,30.297h-4.16v17.349h4.16V30.297z"/>
		</g>
	</g>
	<g>
		<path fill="#4A4A4A" d="M183.346,19.215h-1.204v6.255h-0.945v-6.255h-1.19v-0.944h3.34V19.215z"/>
		<path fill="#4A4A4A" d="M188.361,25.47h-0.944v-3.973l-0.989,3.039l-1.136-3.128v4.062h-0.946v-7.199H185l1.424,3.786l1.318-3.786
			h0.619V25.47z"/>
	</g>
</g>
<path fill="#4A4A4A" d="M191.475,11.464v45.572H22.525V11.464H191.475 M191.475,8.5H22.525l-2.964,2.964v45.572L22.525,60h168.949
	l2.964-2.964V11.464L191.475,8.5L191.475,8.5z"/>
</svg>
