<?xml version="1.0" encoding="utf-8"?>
<!-- Generator: Adobe Illustrator 16.0.0, SVG Export Plug-In . SVG Version: 6.00 Build 0)  -->
<!DOCTYPE svg PUBLIC "-//W3C//DTD SVG 1.1//EN" "http://www.w3.org/Graphics/SVG/1.1/DTD/svg11.dtd">
<svg version="1.1" id="no_shadow" xmlns="http://www.w3.org/2000/svg" xmlns:xlink="http://www.w3.org/1999/xlink" x="0px" y="0px"
	 width="212px" height="70px" viewBox="-33.167 -7.167 212 70" enable-background="new -33.167 -7.167 212 70" xml:space="preserve"
	>
<g id="logos">
	<path fill="#4A4A4A" d="M50.861,44.881V27.335c0-1.239-0.901-1.771-1.979-1.771c-2.14,0-4.819,0.531-7.245,1.598v17.719h-4.945
		V12.293h4.945v10.751c2.352-0.87,5.147-1.61,7.954-1.61c4.491,0,6.175,2.766,6.175,6.557v16.891H50.861L50.861,44.881z
		 M64.988,34.248c0.17,5.901,1.324,7.055,4.947,7.055c2.849,0,6.057-0.954,8.534-1.897l0.817,3.708
		c-2.64,1.196-5.846,2.34-9.682,2.34c-8.238,0-9.521-4.523-9.521-11.734c0-3.961,0.298-7.538,1.239-10.834
		c2.479-0.953,5.771-1.451,9.934-1.451c6.758,0,8.812,3.76,8.812,10.305v2.51H64.988L64.988,34.248z M71.257,25.564
		c-1.482,0-3.834,0.031-5.772,0.402c-0.201,0.996-0.456,2.352-0.529,4.86h10.292C75.25,27.408,74.636,25.564,71.257,25.564
		L71.257,25.564z M89.335,27.162v17.719h-4.934V24.939c4.151-2.268,8.566-2.967,11.446-3.166v4.119
		C93.827,26.051,91.275,26.305,89.335,27.162L89.335,27.162z M108.906,45.453c-7.371,0-10.705-3.622-10.705-11.902
		c0-8.771,4.406-12.117,10.705-12.117c7.385,0,10.72,3.633,10.72,11.913C119.625,42.117,115.208,45.453,108.906,45.453
		L108.906,45.453z M108.906,25.564c-3.789,0-5.886,2.182-5.886,7.986c0,6.344,1.769,7.752,5.886,7.752
		c3.794,0,5.902-2.152,5.902-7.956C114.806,27.004,113.028,25.564,108.906,25.564L108.906,25.564z M143.476,44.881h-5.804
		c-1.366-3.623-3.264-7.328-6.187-10.547h-2.594v10.547h-4.945V12.293h4.945v18.704h2.309c2.511-2.593,4.45-5.804,5.804-8.981h5.561
		c-1.886,3.834-4.321,7.215-7.043,9.969C138.783,36.101,141.334,40.475,143.476,44.881L143.476,44.881z M152.742,45.453
		c-4.492,0-6.175-2.754-6.175-6.543V22.016h4.904v17.507c0,1.239,0.901,1.781,1.969,1.781c2.15,0,5.074-0.54,7.499-1.611V22.016
		h4.946v19.857C160.039,45.095,155.549,45.453,152.742,45.453L152.742,45.453z"/>
	<path fill="#4A4A4A" d="M20.53,56.943h-34.421c-2.942,0-5.326-2.381-5.326-5.326V6.383c0-2.942,2.384-5.326,5.326-5.326H20.53
		c2.944,0,5.339,2.384,5.339,5.326v45.234C25.867,54.562,23.474,56.943,20.53,56.943L20.53,56.943z M24.035,6.691
		c0-2.106-1.706-3.812-3.812-3.812h-33.805c-2.107,0-3.812,1.706-3.812,3.812v44.619c0,2.104,1.705,3.811,3.812,3.811h33.805
		c2.106,0,3.812-1.706,3.812-3.811V6.691L24.035,6.691z"/>
	<path fill="#4A4A4A" d="M9.039,49.255V27.059c0,0,1.439-5.308-17.792,2.169C-8.785,29.321-8.785,8.702-8.785,8.702l6.28-0.03
		v13.207c0,0,17.592-6.926,17.592,5.252c0,12.191,0,22.124,0,22.124H9.039L9.039,49.255z M12.609,16.667c0,0-6.589,0-6.662,0
		c2.404-2.933,4.575-7.965,4.575-7.965h6.885C17.405,8.703,16.23,11.976,12.609,16.667L12.609,16.667z M-8.669,49.223V36.576
		l6.312,6.324L-8.669,49.223L-8.669,49.223z"/>
</g>
</svg>
