<?xml version="1.0" encoding="utf-8"?>
<!-- Generator: Adobe Illustrator 16.0.0, SVG Export Plug-In . SVG Version: 6.00 Build 0)  -->
<!DOCTYPE svg PUBLIC "-//W3C//DTD SVG 1.1//EN" "http://www.w3.org/Graphics/SVG/1.1/DTD/svg11.dtd">
<svg version="1.1" id="Layer_1" xmlns="http://www.w3.org/2000/svg" xmlns:xlink="http://www.w3.org/1999/xlink" x="0px" y="0px"
	 width="162px" height="71.75px" viewBox="0 0 162 71.75" enable-background="new 0 0 162 71.75" xml:space="preserve">
<path fill="#4F4F4F" d="M125.812,33.595c-1.583-1.604-3.503-2.416-5.74-2.495h-5.881v4.225l0.004,0.052v12.647h5.877
	c0.018,0,0.037-0.002,0.053-0.002c0.002,0,0.004,0,0.004,0c0.002,0,0.002-0.001,0.002-0.001c2.193-0.071,4.113-0.883,5.685-2.471
	c1.681-1.645,2.494-3.643,2.494-5.979S127.497,35.258,125.812,33.595z M122.093,41.85c-0.614,0.633-1.384,0.949-2.235,0.949h-0.236
	v-6.433c0.059-0.02,0.157-0.02,0.236-0.02c0.852,0,1.621,0.316,2.235,0.949c0.634,0.634,0.95,1.387,0.95,2.276
	C123.042,40.463,122.727,41.236,122.093,41.85z"/>
<radialGradient id="SVGID_1_" cx="-440.6157" cy="706.9219" r="9.0848" gradientTransform="matrix(1 0 0 1 553.4648 -676.5801)" gradientUnits="userSpaceOnUse">
	<stop  offset="0.1043" style="stop-color:#000000"/>
	<stop  offset="0.2158" style="stop-color:#151515;stop-opacity:0.8755"/>
	<stop  offset="0.3616" style="stop-color:#343334;stop-opacity:0.7128"/>
	<stop  offset="0.5264" style="stop-color:#444344;stop-opacity:0.5288"/>
	<stop  offset="0.7051" style="stop-color:#4E4D4D;stop-opacity:0.3292"/>
	<stop  offset="0.8931" style="stop-color:#514F4F;stop-opacity:0.1193"/>
	<stop  offset="1" style="stop-color:#4F4F4F;stop-opacity:0"/>
</radialGradient>
<polygon fill="url(#SVGID_1_)" points="114.191,31.101 114.194,39.664 118.387,31.101 "/>
<polygon fill="#4F4F4F" points="108.514,31.101 107.287,39.949 107.277,39.908 107.271,39.949 105.154,31.101 103.729,31.115 
	103.214,31.12 103.207,31.12 103.096,31.12 103.09,31.12 102.576,31.115 101.15,31.101 99.032,39.949 99.027,39.908 99.018,39.949 
	97.789,31.101 91.174,31.101 94.875,48.024 101.373,48.024 102.668,42.188 103.148,39.987 103.152,40 103.155,39.987 
	103.637,42.188 104.931,48.024 111.428,48.024 115.13,31.101 "/>
<radialGradient id="SVGID_2_" cx="-462.6396" cy="715.2441" r="9.6348" gradientTransform="matrix(1 0 0 1 553.4648 -676.5801)" gradientUnits="userSpaceOnUse">
	<stop  offset="0.1227" style="stop-color:#000000"/>
	<stop  offset="0.228" style="stop-color:#171717;stop-opacity:0.88"/>
	<stop  offset="0.375" style="stop-color:#373537;stop-opacity:0.7124"/>
	<stop  offset="0.5465" style="stop-color:#464546;stop-opacity:0.517"/>
	<stop  offset="0.7365" style="stop-color:#4F4E4E;stop-opacity:0.3004"/>
	<stop  offset="0.9395" style="stop-color:#504F4F;stop-opacity:0.069"/>
	<stop  offset="1" style="stop-color:#4F4F4F;stop-opacity:0"/>
</radialGradient>
<path fill="url(#SVGID_2_)" d="M91.529,32.724l2.387,10.915c0,0,2.963-2.786,1.92-6.478S91.529,32.724,91.529,32.724z"/>
<path fill="#4F4F4F" d="M90.928,33.595c-1.619-1.662-3.617-2.492-5.969-2.495h-0.003h-0.004h-0.001
	c-2.336,0-4.335,0.832-5.979,2.495c-1.664,1.643-2.495,3.641-2.495,5.977c0,2.337,0.831,4.335,2.495,5.979
	c1.644,1.662,3.644,2.475,5.979,2.475c2.354,0,4.354-0.812,5.977-2.475c1.684-1.645,2.515-3.643,2.515-5.979
	S92.611,35.237,90.928,33.595z M87.107,41.711c-0.594,0.613-1.286,0.91-2.156,0.91c-0.832,0-1.564-0.297-2.137-0.91
	c-0.613-0.574-0.91-1.307-0.91-2.139c0-0.851,0.297-1.563,0.91-2.177c0.575-0.595,1.305-0.891,2.137-0.891
	c0.87,0,1.564,0.296,2.156,0.891c0.595,0.613,0.912,1.326,0.912,2.177C88.02,40.404,87.702,41.137,87.107,41.711z"/>
<radialGradient id="SVGID_3_" cx="-478.0132" cy="714.7852" r="7.764" fx="-478.2969" fy="714.8401" gradientTransform="matrix(1 0 0 1 553.4648 -676.5801)" gradientUnits="userSpaceOnUse">
	<stop  offset="0.1227" style="stop-color:#000000"/>
	<stop  offset="0.228" style="stop-color:#171717;stop-opacity:0.88"/>
	<stop  offset="0.375" style="stop-color:#373537;stop-opacity:0.7124"/>
	<stop  offset="0.5465" style="stop-color:#464546;stop-opacity:0.517"/>
	<stop  offset="0.7365" style="stop-color:#4F4E4E;stop-opacity:0.3004"/>
	<stop  offset="0.9395" style="stop-color:#504F4F;stop-opacity:0.069"/>
	<stop  offset="1" style="stop-color:#4F4F4F;stop-opacity:0"/>
</radialGradient>
<path fill="url(#SVGID_3_)" d="M80.588,36.479c0,3.212-1.253,5.966-3.039,7.143c-0.596,0.392-3.221-6.702,2.419-10.899
	C80.363,33.837,80.588,35.117,80.588,36.479z"/>
<path fill="#4F4F4F" d="M74.333,42.621c0.217-0.159,0.633-0.474,1.208-0.97c0.593-0.495,1.03-1.148,1.326-1.979
	c0.316-0.832,0.474-1.781,0.474-2.85c0-1.584-0.553-2.93-1.682-4.039c-1.008-1.029-2.216-1.584-3.623-1.682h-9.771v0.243
	c2.287,2.062,3.726,5.048,3.726,8.368c0,3.291-1.412,6.252-3.661,8.312h6.205v-4.573l2.611,4.573h6.235L74.333,42.621z
	 M71.82,37.455c0,0.039,0,0.039,0,0.039c0,0.04,0,0.04,0,0.08v0.079c-0.04,0.315-0.179,0.574-0.436,0.83
	c-0.238,0.238-0.534,0.396-0.893,0.396h-1.946c-0.002-0.001-0.009-0.002-0.011-0.002h-0.001v-2.869h1.958
	c0.358,0.02,0.654,0.159,0.893,0.415c0.297,0.279,0.415,0.575,0.436,0.971V37.455z"/>
<g>
	<path fill="#4F4F4F" d="M62.195,53.879v-3.09h0.565v3.09H62.195z"/>
	<path fill="#4F4F4F" d="M68.658,52.225c0.223,0.316,0.402,0.596,0.541,0.842h0.013c-0.019-0.402-0.027-0.695-0.027-0.877v-1.4
		h0.565v3.09h-0.593l-1.007-1.422c-0.177-0.248-0.361-0.533-0.55-0.858h-0.014c0.018,0.38,0.028,0.673,0.028,0.88v1.4h-0.566v-3.09
		h0.594L68.658,52.225z"/>
	<path fill="#4F4F4F" d="M75.301,53.879h-0.566v-2.617h-0.998v-0.473h2.558v0.473h-0.996L75.301,53.879L75.301,53.879z"/>
	<path fill="#4F4F4F" d="M80.849,53.404h1.519v0.475h-2.086v-3.09h2.002v0.473h-1.435v0.8h1.233v0.474h-1.233V53.404z"/>
	<path fill="#4F4F4F" d="M88.805,51.717c0,0.215-0.061,0.398-0.18,0.549s-0.304,0.262-0.552,0.334v0.01l0.921,1.27h-0.682
		l-0.842-1.196h-0.387v1.196h-0.568v-3.09h0.941c0.153,0,0.301,0.01,0.436,0.027c0.133,0.017,0.248,0.043,0.344,0.08
		c0.18,0.068,0.322,0.172,0.418,0.307C88.754,51.338,88.805,51.51,88.805,51.717z M87.362,52.209c0.129,0,0.239-0.006,0.329-0.018
		c0.091-0.01,0.168-0.028,0.228-0.052c0.115-0.042,0.194-0.103,0.237-0.175c0.042-0.076,0.066-0.161,0.066-0.258
		c0-0.084-0.016-0.156-0.052-0.221s-0.095-0.115-0.175-0.15c-0.053-0.025-0.121-0.043-0.203-0.055
		c-0.081-0.012-0.183-0.018-0.302-0.018h-0.405v0.947h0.277L87.362,52.209L87.362,52.209z"/>
	<path fill="#4F4F4F" d="M94.805,53.09h-1.163l-0.305,0.789h-0.602l1.226-3.09h0.518l1.228,3.09h-0.6L94.805,53.09z M94.219,51.531
		c-0.109,0.324-0.205,0.595-0.289,0.812l-0.105,0.276h0.799l-0.105-0.276c-0.084-0.22-0.18-0.49-0.289-0.812H94.219z"/>
	<path fill="#4F4F4F" d="M101.15,51.208c-0.154,0-0.297,0.026-0.427,0.077c-0.129,0.051-0.241,0.123-0.334,0.221
		s-0.166,0.218-0.219,0.361c-0.053,0.143-0.077,0.305-0.077,0.488c0,0.182,0.023,0.342,0.07,0.48
		c0.047,0.138,0.116,0.253,0.204,0.346c0.091,0.093,0.2,0.161,0.328,0.209c0.127,0.047,0.274,0.069,0.438,0.069
		c0.118,0,0.237-0.01,0.359-0.027c0.121-0.019,0.235-0.046,0.343-0.081v0.487c-0.108,0.032-0.226,0.056-0.351,0.071
		c-0.124,0.02-0.254,0.027-0.388,0.027c-0.262,0-0.493-0.037-0.691-0.111c-0.197-0.074-0.362-0.181-0.496-0.316
		c-0.133-0.137-0.233-0.299-0.301-0.49c-0.066-0.189-0.1-0.399-0.1-0.629c0-0.234,0.037-0.454,0.107-0.655s0.174-0.376,0.308-0.524
		c0.136-0.146,0.305-0.264,0.507-0.35c0.201-0.084,0.432-0.126,0.686-0.129c0.131,0,0.255,0.01,0.371,0.027
		c0.119,0.018,0.225,0.042,0.317,0.074v0.481c-0.124-0.039-0.238-0.065-0.345-0.081S101.252,51.208,101.15,51.208z"/>
	<path fill="#4F4F4F" d="M107.222,53.879h-0.565v-2.617h-0.998v-0.473h2.559v0.473h-0.996L107.222,53.879L107.222,53.879z"/>
	<path fill="#4F4F4F" d="M112.205,53.879v-3.09h0.564v3.09H112.205z"/>
	<path fill="#4F4F4F" d="M118.203,53.123c0.057-0.168,0.098-0.287,0.123-0.36c0.025-0.071,0.079-0.219,0.16-0.44l0.573-1.537h0.599
		l-1.208,3.09h-0.509l-1.208-3.09h0.604l0.573,1.537c0.081,0.221,0.134,0.367,0.16,0.44c0.025,0.071,0.066,0.192,0.123,0.36H118.203
		z"/>
	<path fill="#4F4F4F" d="M124.188,53.404h1.52v0.475h-2.086v-3.09h2.002v0.473h-1.436v0.8h1.233v0.474h-1.233V53.404L124.188,53.404
		z"/>
</g>
<path fill="#4F4F4F" d="M52.415,41.814c0.593,0.594,1.306,0.891,2.156,0.891c0.852,0,1.585-0.297,2.158-0.891
	c0.255-0.258,0.455-0.535,0.613-0.832h5.642c-0.279,1.781-1.068,3.346-2.435,4.671c-1.642,1.659-3.634,2.472-5.964,2.474
	c-0.021,0-0.042-0.001-0.064-0.001c-0.071,0-0.145-0.003-0.216-0.005c-1.516-0.053-2.94-0.492-4.16-1.223
	c-0.546-0.342-1.062-0.756-1.552-1.244c-1.664-1.644-2.475-3.643-2.475-5.979s0.812-4.335,2.475-5.978
	c1.659-1.66,3.635-2.49,5.966-2.494c0.013,0,0.03,0,0.043,0c0.004,0,0.007,0,0.009,0c0.299,0.007,0.587,0.023,0.867,0.044
	c1.949,0.19,3.644,1.005,5.07,2.448c1.366,1.326,2.178,2.871,2.435,4.671h-5.622c-0.178-0.315-0.377-0.614-0.633-0.87
	c-0.575-0.595-1.306-0.891-2.157-0.891c-0.852,0-1.565,0.296-2.157,0.891c-0.575,0.613-0.87,1.325-0.87,2.178
	C51.545,40.506,51.841,41.239,52.415,41.814z"/>
<g>
	<circle fill="#91BE25" cx="36.663" cy="36.451" r="1.264"/>
	<circle fill="#91BE25" cx="39.724" cy="30.94" r="0.58"/>
	<circle fill="#91BE25" cx="37.465" cy="31.223" r="0.792"/>
	<circle fill="#91BE25" cx="38.66" cy="27.481" r="1.577"/>
	<circle fill="#91BE25" cx="41.935" cy="26.093" r="1.006"/>
	<circle fill="#91BE25" cx="43.492" cy="22.58" r="0.746"/>
	<circle fill="#91BE25" cx="47.16" cy="23.812" r="1.169"/>
	<circle fill="#91BE25" cx="47.112" cy="18.84" r="1.005"/>
	<path fill="#91BE25" d="M50.816,21.224c0.681,0.447,1.595,0.259,2.043-0.422c0.362-0.55,0.308-1.256-0.089-1.742
		c0.171-0.015,0.334-0.103,0.436-0.257c0.175-0.267,0.101-0.628-0.167-0.802c-0.267-0.176-0.627-0.102-0.804,0.166
		c-0.09,0.139-0.114,0.3-0.079,0.448c-0.634-0.244-1.373-0.024-1.761,0.567C49.946,19.863,50.135,20.776,50.816,21.224z"/>
	<circle fill="#91BE25" cx="55.279" cy="22.668" r="1.169"/>
	<circle fill="#91BE25" cx="57.419" cy="18.982" r="1.168"/>
	<circle fill="#91BE25" cx="59.747" cy="21.093" r="0.745"/>
	<circle fill="#91BE25" cx="63.817" cy="27.722" r="1.006"/>
	<circle fill="#91BE25" cx="37.717" cy="47.637" r="1.006"/>
	<circle fill="#91BE25" cx="34.435" cy="44.979" r="0.746"/>
	<path fill="#91BE25" d="M62.424,28.582c-0.146-0.095-0.303-0.155-0.462-0.187l0.006-0.001c0,0-0.334-0.027-0.313-0.359
		c0.045-0.038,0.087-0.079,0.121-0.13c0.175-0.268,0.1-0.628-0.168-0.804c-0.267-0.175-0.627-0.102-0.804,0.167
		c-0.174,0.268-0.099,0.627,0.168,0.803c0.055,0.038,0.115,0.06,0.175,0.075c0.004,0.014,0.013,0.027,0.023,0.039
		c0.118,0.113,0.066,0.23,0.029,0.288c-0.16,0.067-0.308,0.162-0.435,0.291c-0.076-0.125-0.178-0.236-0.309-0.321
		c-0.254-0.169-0.559-0.203-0.833-0.125c0.146-0.588-0.085-1.23-0.622-1.583c-0.177-0.117-0.37-0.189-0.566-0.222
		c0.08-0.065,0.147-0.141,0.207-0.229c0.098-0.149,0.147-0.316,0.158-0.483c0.001,0.002,0.005,0.004,0.005,0.004
		s0.186-0.737,0.789-0.449c0.539,0.354,1.265,0.204,1.619-0.335c0.355-0.54,0.203-1.265-0.334-1.618
		c-0.541-0.355-1.266-0.204-1.62,0.334c-0.129,0.2-0.192,0.422-0.192,0.643l0-0.001c0,0,0,0.006,0,0.014c0,0.001,0,0.001,0,0.002
		c0,0.093-0.022,0.633-0.593,0.588c-0.002,0-0.002,0-0.002,0c-0.039-0.032-0.074-0.064-0.116-0.092
		c-0.441-0.29-1.023-0.188-1.344,0.218c-0.088-0.2-0.231-0.38-0.431-0.51c-0.54-0.355-1.264-0.204-1.619,0.334
		c-0.059,0.09-0.102,0.186-0.135,0.283c-0.017-0.013-0.035-0.026-0.053-0.039c-0.292-0.193-0.64-0.235-0.953-0.148
		c0.063-0.064,0.12-0.134,0.168-0.21c0.447-0.68,0.258-1.593-0.422-2.042c-0.681-0.448-1.595-0.258-2.043,0.421
		c-0.234,0.36-0.293,0.784-0.195,1.169c-0.582-0.273-1.288-0.085-1.651,0.467c-0.227,0.345-0.267,0.757-0.147,1.121
		c0.011,0.031,0.02,0.061,0.031,0.087c0.015,0.036,0.032,0.069,0.048,0.103c0.244,0.456,0.628,0.347,0.895,0.51
		c0.002,0.002,0.004,0.005,0.006,0.006c0.253,0.136,0.425,0.399,0.425,0.705c0,0.442-0.359,0.801-0.8,0.801
		c-0.442,0-0.8-0.359-0.8-0.801c0-0.041,0.006-0.081,0.012-0.121c0-0.004-0.001-0.007,0-0.012c0.048-0.481-0.119-0.682-0.193-0.746
		c-0.013-0.009-0.021-0.019-0.035-0.027c-0.164-0.108-0.347-0.16-0.529-0.164c-0.001,0-0.001-0.001-0.001-0.001
		c-0.005,0-0.008,0-0.012,0c-0.002,0-0.003,0-0.006,0c-0.04-0.003-0.084,0.001-0.135,0.013c-0.086,0.011-0.171,0.032-0.253,0.066
		c-0.116,0.03-0.245,0.056-0.383,0.051c-0.2-0.008-0.379-0.193-0.643-0.297c-0.001,0-0.002,0-0.003,0
		c-0.512-0.216-1.118-0.046-1.432,0.434c-0.155,0.237-0.21,0.509-0.182,0.77c0,0.002-0.001,0.005,0,0.008
		c0.002,0.014,0.006,0.027,0.008,0.04c0.029,0.18,0.098,0.353,0.208,0.504c0.017,0.066-0.021,0.088-0.094,0.085
		c-0.007,0.001-0.015,0.003-0.026,0.004c-0.04,0.005-0.082,0.013-0.121,0.022c-0.036,0.008-0.072,0.015-0.111,0.026
		c-0.079,0.02-0.13,0.053-0.17,0.081c-0.02,0.011-0.039,0.025-0.058,0.038c-0.048,0.018-0.131,0.014-0.167-0.162
		c-0.014-0.036-0.027-0.071-0.04-0.107c-0.007-0.02-0.013-0.04-0.022-0.06c-0.013-0.031-0.024-0.063-0.039-0.088
		c0,0-0.001,0-0.002-0.001c-0.089-0.172-0.222-0.325-0.395-0.439c-0.54-0.354-1.265-0.205-1.619,0.335
		c-0.356,0.539-0.205,1.264,0.334,1.619c0.252,0.164,0.541,0.217,0.816,0.176l0.033,0.016c0.147-0.079,0.315-0.127,0.495-0.127
		c0.583,0,1.057,0.473,1.057,1.058s-0.475,1.058-1.057,1.058c-0.584,0-1.059-0.473-1.059-1.058c0-0.006,0.002-0.013,0.002-0.018
		c-0.072-0.302-0.253-0.577-0.533-0.761c-0.583-0.383-1.367-0.222-1.75,0.363c-0.386,0.583-0.223,1.365,0.361,1.75
		c0.174,0.115,0.365,0.179,0.562,0.2c-0.407,0.003-0.803,0.199-1.045,0.56c-0.04-0.033-0.085-0.067-0.129-0.095
		c-0.728-0.477-1.704-0.276-2.183,0.453c-0.477,0.728-0.276,1.706,0.454,2.184c0.24,0.157,0.51,0.241,0.779,0.254
		c-0.045,0.05-0.088,0.103-0.125,0.16c-0.384,0.584-0.223,1.367,0.36,1.75c0.161,0.106,0.334,0.165,0.514,0.191
		c0.41,0.281,0.457,0.792,0.236,1.156c-0.055,0.073-0.474,0.586-1.106,0.158c-0.097-0.118-0.213-0.225-0.349-0.313
		c-0.728-0.477-1.703-0.276-2.181,0.452c-0.363,0.553-0.334,1.248,0.019,1.762c-0.242-0.066-0.497-0.037-0.718,0.074
		c0.036-0.415-0.15-0.836-0.521-1.08c-0.541-0.354-1.265-0.204-1.618,0.336c-0.355,0.539-0.205,1.262,0.334,1.617
		c0.391,0.257,0.879,0.248,1.254,0.018c-0.001,0.33,0.157,0.652,0.453,0.844c0.464,0.306,1.087,0.176,1.393-0.289
		c0.029-0.042,0.053-0.088,0.073-0.134l0,0l0,0c0.046-0.103,0.073-0.21,0.085-0.318c0.147-0.35,0.414-0.393,0.529-0.393
		c0.013,0,0.029,0.002,0.042,0.002c0.01,0,0.014,0.001,0.014,0.001l-0.005-0.001c0.145-0.002,0.286-0.024,0.425-0.065
		c0,0,0,0.002,0,0.004c0.004-0.004,0.007-0.004,0.011-0.008c0.116-0.034,0.225-0.08,0.33-0.141c0.322-0.055,0.417,0.24,0.334,0.492
		c-0.001,0-0.001,0-0.001,0.002c-0.035,0.049-0.059,0.102-0.083,0.155c-0.004,0.005-0.008,0.011-0.011,0.014
		c-0.038,0.046-0.049,0.089-0.042,0.13c-0.15,0.483,0.024,1.027,0.468,1.319c0.22,0.145,0.469,0.202,0.711,0.188
		c0.085-0.029,0.174-0.051,0.271-0.051c0.059-0.017,0.118-0.039,0.173-0.066c-0.008,0.028-0.013,0.055-0.021,0.082
		c0.379,0.07,0.663,0.401,0.663,0.801c0,0.451-0.364,0.814-0.815,0.814c-0.361,0-0.659-0.232-0.769-0.553
		c-0.026-0.048-0.05-0.104-0.073-0.175c-0.008-0.114-0.03-0.226-0.068-0.332c-0.001-0.005-0.001-0.009-0.002-0.013
		c-0.001-0.002-0.003-0.002-0.004-0.002c-0.085-0.219-0.232-0.416-0.443-0.553c-0.539-0.354-1.264-0.203-1.619,0.336
		c-0.355,0.54-0.204,1.265,0.334,1.618c0.458,0.302,1.051,0.235,1.436-0.123c0.008-0.005,0.014-0.012,0.021-0.017
		c0.007-0.006,0.012-0.012,0.017-0.016c0.002-0.004,0.005-0.006,0.009-0.01c0.276-0.295,0.359-0.094,0.384,0.08
		c-0.167,0.602,0.064,1.266,0.611,1.622c0.022,0.015,0.047,0.03,0.071,0.043c-0.134,0.087-0.251,0.198-0.344,0.339
		c-0.354,0.539-0.202,1.264,0.335,1.618c0.536,0.353,1.252,0.206,1.609-0.321c-0.001,0.42,0.201,0.833,0.581,1.082
		c0.594,0.391,1.392,0.225,1.78-0.369c0.145-0.297,0.094-0.529,0.094-0.529l0.009,0.004c-0.005-0.025-0.009-0.052-0.009-0.078
		c0-0.273,0.222-0.494,0.494-0.494c0.273,0,0.495,0.221,0.495,0.494c0,0.162-0.079,0.306-0.201,0.395h0.001h-0.002
		c-0.055,0.041-0.118,0.071-0.187,0.088c-0.041,0.023-0.088,0.052-0.13,0.086c-0.016,0.016-0.034,0.033-0.051,0.049
		c-0.024,0.021-0.05,0.043-0.068,0.068c-0.044,0.051-0.087,0.104-0.125,0.161c-0.17,0.259-0.245,0.55-0.236,0.837l0,0
		c-0.145,0.791-0.7,0.427-0.7,0.427c-0.344-0.226-0.806-0.13-1.03,0.214c-0.228,0.344-0.13,0.807,0.213,1.033
		c0.344,0.225,0.808,0.131,1.033-0.214c0.02-0.032,0.038-0.066,0.051-0.101l0.001,0.004c0,0,0.001-0.006,0.003-0.013
		c0.01-0.021,0.016-0.04,0.024-0.062c0.071-0.173,0.297-0.578,0.763-0.377c0.084,0.094,0.18,0.182,0.292,0.255
		c0.126,0.083,0.264,0.146,0.403,0.185c-0.024,0.024-0.047,0.053-0.067,0.083c-0.175,0.268-0.102,0.629,0.167,0.804
		c0.267,0.176,0.628,0.102,0.804-0.166c0.152-0.236,0.115-0.545-0.08-0.734c0.309-0.095,0.589-0.295,0.78-0.588
		c0.067-0.103,0.119-0.214,0.159-0.326c0.118,0.264,0.309,0.498,0.57,0.669c0.728,0.478,1.706,0.277,2.183-0.451
		c0.064-0.096,0.113-0.197,0.15-0.3c0.177,0.107-0.237-0.463-0.237-0.463c-0.736-0.292-1.458-0.666-2.163-1.129
		c-0.023-0.016-0.045-0.032-0.068-0.047c-0.081-0.053-0.159-0.109-0.237-0.163c-1.653-1.169-2.915-2.698-3.738-4.406
		c-0.357-0.78-0.629-1.619-0.816-2.522c-0.651-3.047-0.091-5.867,1.619-8.467c1.71-2.602,4.077-4.234,7.129-4.847
		c3.063-0.634,5.872-0.113,8.468,1.589c0.016,0.013,0.034,0.022,0.049,0.034c0.002,0.001,0.006,0.003,0.012,0.005
		c0.327,0.228,0.633,0.455,0.93,0.682c0.398,0.322,1.412-0.949,1.249-0.962C63.082,29.404,62.875,28.878,62.424,28.582z
		 M42.295,31.906c0.019,0,0.039-0.005,0.057-0.006c0.001,0.006,0.004,0.011,0.005,0.015C42.336,31.912,42.316,31.907,42.295,31.906z
		 M43.778,32.442l0.007-0.009c0.002,0,0.002,0.001,0.002,0.001C43.786,32.438,43.782,32.44,43.778,32.442z M50.157,29.189
		c0.002-0.01,0.002-0.018,0.004-0.027c0.037-0.014,0.07-0.028,0.105-0.043c0.016,0.002,0.035,0.006,0.051,0.009
		C50.263,29.148,50.209,29.167,50.157,29.189z"/>
</g>
</svg>
