<?xml version="1.0" encoding="utf-8"?>
<!-- Generator: Adobe Illustrator 16.0.0, SVG Export Plug-In . SVG Version: 6.00 Build 0)  -->
<!DOCTYPE svg PUBLIC "-//W3C//DTD SVG 1.1//EN" "http://www.w3.org/Graphics/SVG/1.1/DTD/svg11.dtd">
<svg version="1.1" id="no_shadow" xmlns="http://www.w3.org/2000/svg" xmlns:xlink="http://www.w3.org/1999/xlink" x="0px" y="0px"
	 width="212px" height="155px" viewBox="0 -26.5 212 155" enable-background="new 0 -26.5 212 155" xml:space="preserve">
<g>
	<g>
		<path fill-rule="evenodd" clip-rule="evenodd" fill="#4A4A4A" d="M49.669,41.285c-1.241,3.289-3.466,10.124-3.466,10.124
			l-4.093-4.091l3.191-9.223l-3.468-3.607l-6.311,6.242l-3.535-3.399l17.544-17.544l5.827,5.825c0,0,4.959,3.651,5.202,8.115
			c0.134,2.48-0.95,4.207-2.151,5.479c-1.378,1.458-3.249,3.047-6.38,2.773C51.142,41.9,50.438,41.615,49.669,41.285z
			 M45.093,31.161c0,0,2.651,2.651,3.122,3.121c1.006,1.007,2.091,2.462,3.538,2.703c1.817,0.306,3.672-1.446,3.744-3.119
			c0.069-1.66-2.02-3.325-2.02-3.325l-3.876-3.888L45.093,31.161z"/>
		<polygon fill-rule="evenodd" clip-rule="evenodd" fill="#4A4A4A" points="162.712,23.601 179.078,39.897 176.027,43.019 
			161.203,28.261 		"/>
		<g>
			<path fill-rule="evenodd" clip-rule="evenodd" fill="#4A4A4A" d="M129.077,10.147c-0.42-0.227-2.142,0-2.843,0
				c-3.006,0-6.176,0.055-8.67-0.07c0.018-9.46,0.253-19.073,0.141-28.434C111.827-13.22,105.182-7.352,99.048-2.06
				c-0.434,0.375-2.525,1.888-2.566,2.428c-0.015,0.218,0.404,0.821,0.555,1.179c1.244,2.947,2.393,5.81,3.537,8.6
				c-4.138,0-8.276,0-12.415,0c6.22,6.447,12.681,12.749,19.209,19.28c0.343,0.341,1.133,1.325,1.319,1.317
				c0.122-0.005,0.934-1.002,1.249-1.317c6.153-6.151,11.89-11.889,18.032-18.032C128.205,11.156,129.28,10.256,129.077,10.147z
				 M108.683,29.897l-19.246-19.24h12.015l-4.138-9.794l19.81-17.479l-0.269,27.212l10.94,0.066L108.683,29.897z"/>
			<path fill-rule="evenodd" clip-rule="evenodd" fill="#4A4A4A" d="M116.47-15.188L98.079,1.038l4.336,10.258H90.979l17.704,17.697
				l17.587-17.702l-10.06-0.06L116.47-15.188z M113.196-0.325c-0.229,1.519-0.509,3.135-0.695,4.438
				c-0.346,2.458-1.227,7.791-2.244,9.476c-1.059,1.754-3.105,3.437-4.825,3.803c-2.395,0.509-4.866,0.571-5.665,0.219
				c-0.512-0.226-0.946-0.847-1.481-1.292c-1.573-1.309-3.362-2.633-4.647-3.952c3.361,0.084,6.695,0.195,10.126,0.207
				C102.274,8.91,98.84,1.2,98.84,1.2l16.37-14.622C115.21-13.422,113.857-4.676,113.196-0.325z"/>
		</g>
		<g>
			<path fill-rule="evenodd" clip-rule="evenodd" fill="#4A4A4A" d="M90.898,19.317c-1.492-1.481-2.984-2.962-4.473-4.448
				c-1.486,1.482-2.975,2.962-4.463,4.443c-4.27,4.239-8.68,8.621-12.939,13.016c1.478,1.481,2.951,2.965,4.427,4.45
				c4.225,4.254,8.59,8.651,12.975,12.895c2.919-2.875,5.859-5.822,8.703-8.675c2.842-2.85,5.781-5.795,8.7-8.672
				C99.571,27.933,95.162,23.554,90.898,19.317z M85.663,29.912c-0.308,0.355-0.627,0.8-0.901,1.04
				c-2.845,2.479-9.352,2.115-13.801,1.248c-0.13-0.263,0.404-0.699,0.693-0.971c4.935-4.603,9.931-9.871,14.841-14.563
				c0.06-0.013,0.066,0.027,0.069,0.07C88.141,21.024,88.185,27.009,85.663,29.912z"/>
			<path fill-rule="evenodd" clip-rule="evenodd" fill="#4A4A4A" d="M86.425,12.435c-6.629,6.618-13.32,13.171-19.832,19.904
				c6.591,6.604,13.123,13.274,19.832,19.765c6.653-6.547,13.184-13.217,19.836-19.765C99.748,25.606,93.057,19.053,86.425,12.435z
				 M95.581,41.448c-2.917,2.927-5.935,5.951-8.929,8.9l-0.223,0.219l-0.223-0.218c-4.464-4.315-8.91-8.793-13.21-13.121
				c-1.546-1.56-3.094-3.116-4.646-4.671l-0.221-0.222l0.218-0.226c4.331-4.476,8.822-8.937,13.164-13.25
				c1.564-1.554,3.128-3.108,4.692-4.666l0.223-0.225l0.226,0.225c1.563,1.561,3.13,3.116,4.696,4.672
				c4.342,4.312,8.831,8.77,13.159,13.244l0.22,0.228L104.5,32.56C101.509,35.505,98.495,38.525,95.581,41.448z"/>
		</g>
		<g>
			<path fill-rule="evenodd" clip-rule="evenodd" fill="#4A4A4A" d="M139.916,23.674c-2.84-2.848-5.775-5.792-8.693-8.666
				c-5.827,5.782-11.703,11.655-17.459,17.463c2.925,2.885,5.871,5.836,8.723,8.696c2.854,2.86,5.804,5.817,8.733,8.704
				c2.532-2.585,5.135-5.173,7.654-7.68c3.222-3.201,6.548-6.509,9.75-9.836C145.703,29.476,142.763,26.528,139.916,23.674z
				 M130.465,30.05c-0.316,0.365-0.683,0.798-0.972,1.04c-2.972,2.513-9.269,2.138-13.8,1.249c-0.075-0.295,0.461-0.599,0.761-0.901
				c4.803-4.801,9.982-9.827,14.843-14.633C132.954,21.066,132.99,27.126,130.465,30.05z"/>
			<path fill-rule="evenodd" clip-rule="evenodd" fill="#4A4A4A" d="M131.227,12.573c-6.662,6.606-13.295,13.241-19.902,19.904
				c6.674,6.572,13.229,13.264,19.902,19.833c6.561-6.709,13.334-13.204,19.836-19.972
				C144.411,25.792,137.879,19.121,131.227,12.573z M139.324,42.646c-2.593,2.579-5.273,5.242-7.873,7.901l-0.223,0.229
				l-0.228-0.225c-3.009-2.959-6.036-5.996-8.965-8.933c-2.926-2.932-5.946-5.964-8.95-8.917l-0.229-0.226l0.227-0.226
				c5.909-5.959,11.936-11.986,17.915-17.916l0.225-0.222l0.225,0.222c2.993,2.944,6.008,5.966,8.921,8.889
				c2.92,2.925,5.936,5.951,8.932,8.898l0.226,0.221l-0.22,0.228C146.027,35.98,142.62,39.37,139.324,42.646z"/>
		</g>
		<g>
			<path fill-rule="evenodd" clip-rule="evenodd" fill="#4A4A4A" d="M108.965,34.627c-6.651,6.546-13.182,13.217-19.834,19.766
				c6.549,6.72,13.183,13.355,19.904,19.901c6.536-6.686,13.287-13.159,19.766-19.901C122.147,47.845,115.618,41.174,108.965,34.627
				z M117.101,64.662c-2.585,2.567-5.255,5.226-7.845,7.873l-0.223,0.229l-0.228-0.223c-6.021-5.862-12.05-11.894-17.921-17.918
				l-0.22-0.228l0.226-0.224c2.99-2.944,6.005-5.966,8.921-8.89c2.916-2.925,5.935-5.949,8.929-8.898l0.224-0.221l0.226,0.221
				c2.993,2.946,6.008,5.969,8.923,8.893c2.918,2.927,5.933,5.949,8.929,8.896l0.222,0.222l-0.219,0.227
				C123.781,58.02,120.383,61.396,117.101,64.662z"/>
			<path fill-rule="evenodd" clip-rule="evenodd" fill="#4A4A4A" d="M117.661,45.729c-2.841-2.851-5.776-5.793-8.696-8.668
				c-2.92,2.875-5.858,5.822-8.702,8.674c-2.843,2.851-5.78,5.794-8.699,8.67c5.724,5.871,11.595,11.74,17.459,17.457
				c2.522-2.575,5.114-5.156,7.627-7.651c3.208-3.189,6.522-6.487,9.716-9.805C123.447,51.527,120.507,48.579,117.661,45.729z
				 M109.103,50.994c-0.48,0.792-1.284,1.698-1.939,2.22c-2.952,2.343-9.191,2.054-13.664,1.18c-0.131-0.281,0.41-0.69,0.695-0.972
				c4.8-4.804,10.078-9.728,14.841-14.634c0.059-0.012,0.066,0.025,0.067,0.069C110.236,42.464,110.985,47.893,109.103,50.994z"/>
		</g>
		<path fill-rule="evenodd" clip-rule="evenodd" fill="#4A4A4A" d="M169.925,49.121c-0.317-0.213-0.513-0.549-0.834-0.762
			c-0.217,3.424-3.356,5.97-6.795,5.616c-2.47-0.253-4.957-2.421-4.993-5.339c-0.042-3.301,2.732-5.755,5.132-6.865
			c-0.404-0.829-1.574-1.561-2.773-1.109c-1.672,0.626-2.771,2.972-3.33,4.645c-1.176-0.232-2.17-0.648-3.327-0.901
			c1.019-3.722,3.524-7.463,7.695-7.976c2.116-0.259,3.558,0.854,4.786,2.08c2.03,2.031,4.134,4.135,6.242,6.242
			c0.293,0.293,1.246,1.188,1.249,1.248c0.009,0.188-1.365,1.436-1.525,1.597C170.812,48.235,170.305,48.638,169.925,49.121z
			 M161.326,47.735c0.023,1.476,1.66,2.444,2.98,1.94c0.866-0.328,2.655-2.127,2.219-3.813c-0.083-0.321-1.169-1.562-1.732-1.664
			c-0.058-0.01-0.069,0.07-0.069,0.07C163.389,44.289,161.303,46.509,161.326,47.735z"/>
		<path fill-rule="evenodd" clip-rule="evenodd" fill="#4A4A4A" d="M65.591,44.595c0,0-4.746,4.566-7.113,7.023
			c-0.854,0.886-2.169,1.999-1.874,3.746c0.268,1.575,2.541,3.191,4.371,2.287c1.709-0.844,4.376-4,4.376-4l4.639-4.599l3.543,3.447
			L60.351,65.626l-3.499-3.483c0,0,0.626-0.474,0.862-0.813c-3.254-0.158-6.711-3.114-6.312-7.146
			c0.353-3.52,4.647-7.003,4.647-7.003l6.04-6.088L65.591,44.595z"/>
		<path fill-rule="evenodd" clip-rule="evenodd" fill="#4A4A4A" d="M150.922,45.793c0.623,1.298,1.624,2.585,2.082,3.814
			c-1.902,0.153-3.522,1.611-3.398,3.189c0.084,1.06,1.924,2.757,1.924,2.757l5.931,5.965l-3.122,3.121l-11.737-11.772l3.052-3.052
			c0,0,0.503,0.514,0.832,0.692C146.703,47.677,148.113,46.036,150.922,45.793z"/>
		<path fill-rule="evenodd" clip-rule="evenodd" fill="#4A4A4A" d="M80.254,52.449l5.243,1.717c0,0-5.046,4.94-5.935,5.982
			c3.4,0.36,6.033,2.905,5.754,6.796c-0.204,2.829-1.817,4.87-3.745,6.797c-2.063,2.063-4.306,3.998-7.835,3.745
			c-3.021-0.216-5.29-2.292-5.828-5.688c-0.271,0.227-0.758,0.679-0.758,0.679l-3.472-3.451L80.254,52.449z M73.597,65.975
			c-0.68,0.677-1.759,1.762-2.248,2.422c-0.631,0.85,0.716,3.677,2.109,4.028c0.432,0.107,0.854,0.188,1.388,0.067
			c1.831-0.412,4.226-2.818,5.061-4.646c1.193-2.606-0.686-4.688-3.604-4.508c-0.042,0.003-0.083,0.011-0.069,0.069
			C75.418,64.199,74.626,64.945,73.597,65.975z"/>
		<path fill-rule="evenodd" clip-rule="evenodd" fill="#4A4A4A" d="M132.198,54.116l4.578,4.506l2.911-2.773l2.928,2.931
			l-2.856,2.757c0,0,2.925,2.926,4.438,4.438c0.477,0.478,1.047,1.183,1.733,1.18c1.243-0.01,1.909-1.591,1.94-3.191
			c0.946,1.137,1.779,2.384,2.705,3.536c-0.623,2.42-2.578,5.133-5.756,4.3c-1.814-0.474-3.027-1.988-4.37-3.329
			c-1.375-1.375-2.666-2.771-3.812-3.813c-0.307,0.203-1.942,1.942-1.942,1.942l-2.914-2.982l1.943-1.872l-3.004-3.002
			L132.198,54.116z"/>
		<path fill-rule="evenodd" clip-rule="evenodd" fill="#4A4A4A" d="M138.647,80.4c-1.497-1.395-5.702-5.776-6.518-6.521
			c-0.685-0.617-1.67-1.524-2.776-1.524c-1.458,0-2.978,1.524-2.773,3.191c0.119,0.943,1.014,1.914,1.666,2.564
			c2.029,2.032,6.309,6.381,6.309,6.381l-3.119,2.981L119.715,75.75l3.051-3.048c0,0,0.505,0.514,0.835,0.691
			c0.202-2.875,2.644-5.338,5.129-5.618c3.569-0.397,5.546,2.149,7.631,4.232c1.229,1.231,5.336,5.223,5.339,5.271
			C141.707,77.46,139.032,79.913,138.647,80.4z"/>
		<polygon fill-rule="evenodd" clip-rule="evenodd" fill="#4A4A4A" points="89.384,68.282 93.198,72.098 86.981,84.283 
			99.163,78.061 102.908,81.807 78.381,92.882 74.984,89.415 81.225,86.641 		"/>
		<path fill-rule="evenodd" clip-rule="evenodd" fill="#4A4A4A" d="M124.084,85.115c-2.292,2.398-4.709,4.675-7.006,7.074
			c2.244,2.062,5.985,0.032,5.827-3.052c1.344-0.11,2.669-0.246,4.021-0.347c0,2.891-0.752,4.393-2.011,5.824
			c-1.3,1.484-3.421,2.84-6.244,2.636c-4.248-0.304-8.627-4.746-8.666-9.292c-0.031-3.624,2.363-6.619,5.965-6.935
			C120.049,80.665,122.059,83.214,124.084,85.115z M113.819,87.681c0.041,0.89,0.471,1.446,0.901,2.083
			c1.463-1.246,2.746-2.666,4.094-4.024C117.062,83.979,113.71,85.148,113.819,87.681z"/>
		<path fill-rule="evenodd" clip-rule="evenodd" fill="#4A4A4A" d="M104.805,89.275c-0.508,1.414-1.073,2.766-1.527,4.23
			c-3.475-0.901-6.229,1.652-6.034,4.785c0.217,3.448,4.054,7.328,7.351,7.699c3.727,0.416,6.201-2.576,5.131-6.449
			c1.452-0.305,2.773-0.742,4.232-1.042c1.419,4.089-0.285,7.45-2.567,9.57c-1.607,1.499-3.786,2.556-6.102,2.565
			c-5.618,0.031-10.583-4.922-11.999-9.362c-1.023-3.215-0.151-6.502,1.249-8.459C96.349,90.281,100.31,87.491,104.805,89.275z"/>
	</g>
	<polygon fill-rule="evenodd" clip-rule="evenodd" fill="#4A4A4A" points="175.914,15.794 168.746,22.946 167.309,21.542 
		174.481,14.426 	"/>
	<path fill-rule="evenodd" clip-rule="evenodd" fill="#4A4A4A" d="M173.7,28.001c0.643-0.69,2.662-2.625,3.002-3.001
		c0.285-0.315,0.704-0.77,0.704-1.278c0-0.671-0.704-1.371-1.472-1.277c-0.432,0.054-0.878,0.467-1.181,0.767
		c-0.933,0.935-2.936,2.906-2.936,2.906l-1.374-1.438l5.397-5.396l1.403,1.405c0,0-0.237,0.232-0.319,0.383
		c1.324,0.093,2.458,1.218,2.586,2.363c0.185,1.642-0.988,2.552-1.948,3.511c-0.564,0.566-2.402,2.458-2.426,2.458
		C175.057,29.41,173.927,28.178,173.7,28.001z"/>
	<path fill-rule="evenodd" clip-rule="evenodd" fill="#4A4A4A" d="M185.178,30.804c-0.634,0-1.186,0-1.916-0.048
		c0.084-0.44,0.23-0.831-0.174-1.54c-0.296-0.57-0.805-0.806-1.269-0.817c-0.685-0.05-1.48,0.466-1.992,1.257
		c-0.509,0.792-0.343,1.673,0.293,2.235c0.437,0.385,1.182,0.42,1.759,0.39c0.05,0.622,0.027,1.136,0.074,1.758
		c-1.344,0.062-2.345-0.048-3.171-0.774c-0.686-0.598-1.308-1.574-1.213-2.872c0.14-1.956,2.221-4.134,4.31-3.986
		c1.121,0.079,1.98,0.561,2.799,1.648C185.221,28.78,185.312,29.839,185.178,30.804z"/>
	<path fill="#4A4A4A" d="M184.849,36.032c0,0.752-0.61,1.362-1.364,1.362c-0.749,0-1.362-0.61-1.362-1.362
		c0-0.753,0.613-1.363,1.362-1.363C184.238,34.669,184.849,35.279,184.849,36.032z"/>
</g>
</svg>
